<svg xmlns="http://www.w3.org/2000/svg" preserveAspectRatio="none" viewBox="0 0 100 1"><rect fill="#2563EB" height="0.6204335445372795" width="1" x="0" y="0.3795664554627205"></rect><rect fill="#2563EB" height="0.7037414916536696" width="1" x="1" y="0.2962585083463304"></rect><rect fill="#2563EB" height="0.7290854084063301" width="1" x="2" y="0.27091459159366993"></rect><rect fill="#2563EB" height="0.9159339216982328" width="1" x="3" y="0.08406607830176716"></rect><rect fill="#2563EB" height="0.704464917503713" width="1" x="4" y="0.295535082496287"></rect><rect fill="#2563EB" height="0.5670209193163338" width="1" x="5" y="0.4329790806836662"></rect><rect fill="#2563EB" height="0.9673658934650103" width="1" x="6" y="0.03263410653498966"></rect><rect fill="#2563EB" height="0.720225794424473" width="1" x="7" y="0.279774205575527"></rect><rect fill="#2563EB" height="0.7033492993895709" width="1" x="8" y="0.2966507006104291"></rect><rect fill="#2563EB" height="0.9083792785717902" width="1" x="9" y="0.09162072142820976"></rect><rect fill="#2563EB" height="0.7012252303047892" width="1" x="10" y="0.2987747696952108"></rect><rect fill="#2563EB" height="0.639037184028561" width="1" x="11" y="0.360962815971439"></rect><rect fill="#2563EB" height="0.796142315270955" width="1" x="12" y="0.20385768472904497"></rect><rect fill="#2563EB" height="0.8890545012934888" width="1" x="13" y="0.11094549870651116"></rect><rect fill="#2563EB" height="0.6767833387828495" width="1" x="14" y="0.32321666121715054"></rect><rect fill="#2563EB" height="0.764158379852971" width="1" x="15" y="0.23584162014702903"></rect><rect fill="#2563EB" height="0.6937986865431716" width="1" x="16" y="0.30620131345682844"></rect><rect fill="#2563EB" height="0.6183465215395816" width="1" x="17" y="0.3816534784604184"></rect><rect fill="#2563EB" height="0.6639684363730988" width="1" x="18" y="0.33603156362690123"></rect><rect fill="#2563EB" height="0.7953492764874429" width="1" x="19" y="0.2046507235125571"></rect><rect fill="#2563EB" height="0.6582531570907754" width="1" x="20" y="0.34174684290922464"></rect><rect fill="#2563EB" height="0.7582647629432289" width="1" x="21" y="0.24173523705677114"></rect><rect fill="#2563EB" height="0.9324596598248861" width="1" x="22" y="0.0675403401751139"></rect><rect fill="#2563EB" height="0.6911802987040273" width="1" x="23" y="0.3088197012959727"></rect><rect fill="#2563EB" height="0.5938443944176693" width="1" x="24" y="0.40615560558233066"></rect><rect fill="#2563EB" height="0.8931893212478547" width="1" x="25" y="0.10681067875214534"></rect><rect fill="#2563EB" height="0.7866072362571319" width="1" x="26" y="0.21339276374286809"></rect><rect fill="#2563EB" height="0.7738745691800889" width="1" x="27" y="0.2261254308199111"></rect><rect fill="#2563EB" height="0.8793095324786327" width="1" x="28" y="0.12069046752136725"></rect><rect fill="#2563EB" height="0.7312804912068063" width="1" x="29" y="0.26871950879319373"></rect><rect fill="#2563EB" height="0.6838564789108684" width="1" x="30" y="0.3161435210891316"></rect><rect fill="#2563EB" height="0.8344471585195719" width="1" x="31" y="0.16555284148042815"></rect><rect fill="#2563EB" height="0.7954399570293164" width="1" x="32" y="0.20456004297068364"></rect><rect fill="#2563EB" height="0.6771037392119075" width="1" x="33" y="0.3228962607880925"></rect><rect fill="#2563EB" height="0.8281414745238218" width="1" x="34" y="0.1718585254761782"></rect><rect fill="#2563EB" height="0.8000795673259937" width="1" x="35" y="0.19992043267400628"></rect><rect fill="#2563EB" height="0.841727301899089" width="1" x="36" y="0.15827269810091105"></rect><rect fill="#2563EB" height="0.8624947323907327" width="1" x="37" y="0.1375052676092673"></rect><rect fill="#2563EB" height="0.9157567474247109" width="1" x="38" y="0.08424325257528908"></rect><rect fill="#2563EB" height="0.689995132004634" width="1" x="39" y="0.310004867995366"></rect><rect fill="#2563EB" height="0.8624694789319263" width="1" x="40" y="0.13753052106807373"></rect><rect fill="#2563EB" height="0.9417974973731669" width="1" x="41" y="0.05820250262683313"></rect><rect fill="#2563EB" height="0.7271470941145941" width="1" x="42" y="0.2728529058854059"></rect><rect fill="#2563EB" height="0.743766276965425" width="1" x="43" y="0.25623372303457503"></rect><rect fill="#2563EB" height="0.9747508593784148" width="1" x="44" y="0.02524914062158523"></rect><rect fill="#2563EB" height="0.7915367098644795" width="1" x="45" y="0.20846329013552045"></rect><rect fill="#2563EB" height="0.7123605087063929" width="1" x="46" y="0.2876394912936071"></rect><rect fill="#2563EB" height="0.9639363597382453" width="1" x="47" y="0.03606364026175468"></rect><rect fill="#2563EB" height="0.7716236469876455" width="1" x="48" y="0.22837635301235448"></rect><rect fill="#2563EB" height="0.8139325049273817" width="1" x="49" y="0.18606749507261833"></rect><rect fill="#2563EB" height="0.7741252240308579" width="1" x="50" y="0.22587477596914207"></rect><rect fill="#2563EB" height="0.6080758879781631" width="1" x="51" y="0.39192411202183686"></rect><rect fill="#2563EB" height="0.48709133720805764" width="1" x="52" y="0.5129086627919424"></rect><rect fill="#2563EB" height="0.5383387614089447" width="1" x="53" y="0.46166123859105535"></rect><rect fill="#2563EB" height="0.5410427377827207" width="1" x="54" y="0.4589572622172793"></rect><rect fill="#2563EB" height="0.6227263203433112" width="1" x="55" y="0.3772736796566888"></rect><rect fill="#2563EB" height="0.6153546558404723" width="1" x="56" y="0.38464534415952767"></rect><rect fill="#2563EB" height="0.533129259397188" width="1" x="57" y="0.466870740602812"></rect><rect fill="#2563EB" height="0.6306227572683019" width="1" x="58" y="0.36937724273169814"></rect><rect fill="#2563EB" height="0.588744444807352" width="1" x="59" y="0.411255555192648"></rect><rect fill="#2563EB" height="0.5134711504677054" width="1" x="60" y="0.4865288495322946"></rect><rect fill="#2563EB" height="0.5461743119324588" width="1" x="61" y="0.4538256880675412"></rect><rect fill="#2563EB" height="0.5911658598019904" width="1" x="62" y="0.40883414019800957"></rect><rect fill="#2563EB" height="0.5994694073345868" width="1" x="63" y="0.40053059266541324"></rect><rect fill="#2563EB" height="0.5738373590286574" width="1" x="64" y="0.4261626409713426"></rect><rect fill="#2563EB" height="0.612295848661192" width="1" x="65" y="0.387704151338808"></rect><rect fill="#2563EB" height="0.6104368718390929" width="1" x="66" y="0.3895631281609071"></rect><rect fill="#2563EB" height="0.5613185242975907" width="1" x="67" y="0.43868147570240934"></rect><rect fill="#2563EB" height="0.6566745554036079" width="1" x="68" y="0.34332544459639214"></rect><rect fill="#2563EB" height="0.60806697165649" width="1" x="69" y="0.39193302834350996"></rect><rect fill="#2563EB" height="0.9105342671912762" width="1" x="70" y="0.08946573280872383"></rect><rect fill="#2563EB" height="0.7521010653445186" width="1" x="71" y="0.2478989346554814"></rect><rect fill="#2563EB" height="0.962967830820151" width="1" x="72" y="0.03703216917984897"></rect><rect fill="#2563EB" height="0.7931761637912889" width="1" x="73" y="0.20682383620871114"></rect><rect fill="#2563EB" height="0.7057684759994359" width="1" x="74" y="0.29423152400056407"></rect><rect fill="#2563EB" height="0.8886236897681569" width="1" x="75" y="0.11137631023184313"></rect><rect fill="#2563EB" height="0.9059490471724301" width="1" x="76" y="0.09405095282756992"></rect><rect fill="#2563EB" height="0.7958052495256056" width="1" x="77" y="0.2041947504743944"></rect><rect fill="#2563EB" height="0.8961760707948182" width="1" x="78" y="0.1038239292051818"></rect><rect fill="#2563EB" height="0.9791616750417532" width="1" x="79" y="0.02083832495824678"></rect><rect fill="#2563EB" height="0.7811993385835249" width="1" x="80" y="0.21880066141647514"></rect><rect fill="#2563EB" height="0.796487707383382" width="1" x="81" y="0.20351229261661796"></rect><rect fill="#2563EB" height="1" width="1" x="82" y="0"></rect><rect fill="#2563EB" height="0.8010708044924727" width="1" x="83" y="0.1989291955075273"></rect><rect fill="#2563EB" height="0.778997160426137" width="1" x="84" y="0.22100283957386302"></rect><rect fill="#2563EB" height="0.9902008028387266" width="1" x="85" y="0.00979919716127342"></rect><rect fill="#2563EB" height="0.8022177370782717" width="1" x="86" y="0.1977822629217283"></rect><rect fill="#2563EB" height="0.7932631528652301" width="1" x="87" y="0.20673684713476992"></rect><rect fill="#2563EB" height="0.9633321579878062" width="1" x="88" y="0.03666784201219375"></rect><rect fill="#2563EB" height="0.8673126761102953" width="1" x="89" y="0.13268732388970472"></rect><rect fill="#2563EB" height="0.823526894155799" width="1" x="90" y="0.17647310584420095"></rect><rect fill="#2563EB" height="0.9402248314909804" width="1" x="91" y="0.05977516850901965"></rect><rect fill="#2563EB" height="0.8738763036542991" width="1" x="92" y="0.12612369634570086"></rect><rect fill="#2563EB" height="0.8593027652014429" width="1" x="93" y="0.1406972347985571"></rect><rect fill="#2563EB" height="0.9102819397487345" width="1" x="94" y="0.0897180602512655"></rect><rect fill="#2563EB" height="0.09459363732115081" width="1" x="95" y="0.9054063626788492"></rect><rect fill="#2563EB" height="0.007209377233096192" width="1" x="96" y="0.9927906227669038"></rect><rect fill="#2563EB" height="0.002464635201777839" width="1" x="97" y="0.9975353647982221"></rect><rect fill="#2563EB" height="0.0008030854525472612" width="1" x="98" y="0.9991969145474527"></rect><rect fill="#2563EB" height="0.0002505920050234672" width="1" x="99" y="0.9997494079949766"></rect></svg>