<svg xmlns="http://www.w3.org/2000/svg" preserveAspectRatio="none" viewBox="0 0 100 1"><rect fill="#2563EB" height="0.23449255459037038" width="1" x="0" y="0.7655074454096296"></rect><rect fill="#2563EB" height="0.4209790977289527" width="1" x="1" y="0.5790209022710473"></rect><rect fill="#2563EB" height="0.5004070589679894" width="1" x="2" y="0.4995929410320106"></rect><rect fill="#2563EB" height="0.3756134549741104" width="1" x="3" y="0.6243865450258896"></rect><rect fill="#2563EB" height="0.43025074813918346" width="1" x="4" y="0.5697492518608165"></rect><rect fill="#2563EB" height="0.44670026909278876" width="1" x="5" y="0.5532997309072112"></rect><rect fill="#2563EB" height="0.45521107396343713" width="1" x="6" y="0.5447889260365628"></rect><rect fill="#2563EB" height="0.6523301414847164" width="1" x="7" y="0.34766985851528365"></rect><rect fill="#2563EB" height="0.6957346621207677" width="1" x="8" y="0.30426533787923227"></rect><rect fill="#2563EB" height="0.5792967271442662" width="1" x="9" y="0.42070327285573383"></rect><rect fill="#2563EB" height="0.550159585428263" width="1" x="10" y="0.44984041457173696"></rect><rect fill="#2563EB" height="0.6607142721815507" width="1" x="11" y="0.33928572781844935"></rect><rect fill="#2563EB" height="0.6514031074291904" width="1" x="12" y="0.3485968925708096"></rect><rect fill="#2563EB" height="0.6164979333400731" width="1" x="13" y="0.3835020666599269"></rect><rect fill="#2563EB" height="0.6808436223053841" width="1" x="14" y="0.3191563776946159"></rect><rect fill="#2563EB" height="0.6522368498548404" width="1" x="15" y="0.34776315014515957"></rect><rect fill="#2563EB" height="0.5904020787760066" width="1" x="16" y="0.4095979212239934"></rect><rect fill="#2563EB" height="0.6329478379652552" width="1" x="17" y="0.3670521620347448"></rect><rect fill="#2563EB" height="0.6911523120266995" width="1" x="18" y="0.30884768797330053"></rect><rect fill="#2563EB" height="0.6173965558361296" width="1" x="19" y="0.3826034441638704"></rect><rect fill="#2563EB" height="0.5413243865318731" width="1" x="20" y="0.4586756134681269"></rect><rect fill="#2563EB" height="0.760678572554291" width="1" x="21" y="0.23932142744570895"></rect><rect fill="#2563EB" height="0.7422843530282922" width="1" x="22" y="0.2577156469717078"></rect><rect fill="#2563EB" height="0.5635479920109631" width="1" x="23" y="0.43645200798903694"></rect><rect fill="#2563EB" height="0.7130457870906028" width="1" x="24" y="0.28695421290939715"></rect><rect fill="#2563EB" height="0.7733001471720009" width="1" x="25" y="0.2266998528279991"></rect><rect fill="#2563EB" height="0.6296917808369826" width="1" x="26" y="0.37030821916301737"></rect><rect fill="#2563EB" height="0.772686301453083" width="1" x="27" y="0.22731369854691696"></rect><rect fill="#2563EB" height="0.6744933427007264" width="1" x="28" y="0.32550665729927364"></rect><rect fill="#2563EB" height="0.6867975583409947" width="1" x="29" y="0.31320244165900535"></rect><rect fill="#2563EB" height="0.6172624986147731" width="1" x="30" y="0.3827375013852269"></rect><rect fill="#2563EB" height="0.693596770309026" width="1" x="31" y="0.306403229690974"></rect><rect fill="#2563EB" height="0.6519449134229958" width="1" x="32" y="0.34805508657700424"></rect><rect fill="#2563EB" height="0.5715384542782255" width="1" x="33" y="0.42846154572177453"></rect><rect fill="#2563EB" height="0.686272296355479" width="1" x="34" y="0.31372770364452096"></rect><rect fill="#2563EB" height="0.6702674260473274" width="1" x="35" y="0.32973257395267264"></rect><rect fill="#2563EB" height="0.6387846477890587" width="1" x="36" y="0.36121535221094125"></rect><rect fill="#2563EB" height="0.5935140782566926" width="1" x="37" y="0.40648592174330744"></rect><rect fill="#2563EB" height="0.665732005046869" width="1" x="38" y="0.334267994953131"></rect><rect fill="#2563EB" height="0.6636171065724349" width="1" x="39" y="0.3363828934275651"></rect><rect fill="#2563EB" height="0.576116886354226" width="1" x="40" y="0.423883113645774"></rect><rect fill="#2563EB" height="0.7472337220254005" width="1" x="41" y="0.2527662779745995"></rect><rect fill="#2563EB" height="0.7906297280267977" width="1" x="42" y="0.20937027197320235"></rect><rect fill="#2563EB" height="0.679560056812013" width="1" x="43" y="0.32043994318798696"></rect><rect fill="#2563EB" height="0.6509885806018866" width="1" x="44" y="0.3490114193981134"></rect><rect fill="#2563EB" height="0.7918499488739047" width="1" x="45" y="0.2081500511260953"></rect><rect fill="#2563EB" height="0.7176601016773997" width="1" x="46" y="0.2823398983226003"></rect><rect fill="#2563EB" height="0.8308750591379518" width="1" x="47" y="0.1691249408620482"></rect><rect fill="#2563EB" height="0.5622089221933139" width="1" x="48" y="0.43779107780668614"></rect><rect fill="#2563EB" height="0.7534624763100517" width="1" x="49" y="0.2465375236899483"></rect><rect fill="#2563EB" height="0.7405136691086255" width="1" x="50" y="0.2594863308913745"></rect><rect fill="#2563EB" height="0.6993880916583379" width="1" x="51" y="0.30061190834166207"></rect><rect fill="#2563EB" height="0.6368787716383587" width="1" x="52" y="0.3631212283616413"></rect><rect fill="#2563EB" height="0.6669109571796663" width="1" x="53" y="0.3330890428203337"></rect><rect fill="#2563EB" height="0.6763360105839615" width="1" x="54" y="0.32366398941603847"></rect><rect fill="#2563EB" height="0.7330422458019902" width="1" x="55" y="0.2669577541980098"></rect><rect fill="#2563EB" height="1" width="1" x="56" y="0"></rect><rect fill="#2563EB" height="0.9658158277554668" width="1" x="57" y="0.034184172244533184"></rect><rect fill="#2563EB" height="0.8940934383049185" width="1" x="58" y="0.1059065616950815"></rect><rect fill="#2563EB" height="0.8441032013648798" width="1" x="59" y="0.15589679863512018"></rect><rect fill="#2563EB" height="0.9421679712441058" width="1" x="60" y="0.057832028755894216"></rect><rect fill="#2563EB" height="0.8861665220010915" width="1" x="61" y="0.11383347799890853"></rect><rect fill="#2563EB" height="0.8502901714650507" width="1" x="62" y="0.1497098285349493"></rect><rect fill="#2563EB" height="0.8461376436939493" width="1" x="63" y="0.15386235630605072"></rect><rect fill="#2563EB" height="0.681398170102908" width="1" x="64" y="0.31860182989709196"></rect><rect fill="#2563EB" height="0.5660847272871012" width="1" x="65" y="0.43391527271289876"></rect><rect fill="#2563EB" height="0.6265829723556134" width="1" x="66" y="0.37341702764438656"></rect><rect fill="#2563EB" height="0.6763620190841653" width="1" x="67" y="0.32363798091583473"></rect><rect fill="#2563EB" height="0.6536622539292732" width="1" x="68" y="0.34633774607072676"></rect><rect fill="#2563EB" height="0.6077287214431584" width="1" x="69" y="0.39227127855684163"></rect><rect fill="#2563EB" height="0.6448008889548205" width="1" x="70" y="0.35519911104517954"></rect><rect fill="#2563EB" height="0.6533838842429543" width="1" x="71" y="0.34661611575704565"></rect><rect fill="#2563EB" height="0.5503571666823994" width="1" x="72" y="0.4496428333176006"></rect><rect fill="#2563EB" height="0.6742574403636288" width="1" x="73" y="0.3257425596363712"></rect><rect fill="#2563EB" height="0.6765636979346231" width="1" x="74" y="0.3234363020653769"></rect><rect fill="#2563EB" height="0.5813057309556072" width="1" x="75" y="0.4186942690443928"></rect><rect fill="#2563EB" height="0.5429147233666357" width="1" x="76" y="0.4570852766333643"></rect><rect fill="#2563EB" height="0.7672697850261518" width="1" x="77" y="0.23273021497384816"></rect><rect fill="#2563EB" height="0.797665095754744" width="1" x="78" y="0.20233490424525602"></rect><rect fill="#2563EB" height="0.6647864029025413" width="1" x="79" y="0.3352135970974587"></rect><rect fill="#2563EB" height="0.6947823611359621" width="1" x="80" y="0.30521763886403785"></rect><rect fill="#2563EB" height="0.8099191444611139" width="1" x="81" y="0.1900808555388861"></rect><rect fill="#2563EB" height="0.6928507347168128" width="1" x="82" y="0.3071492652831872"></rect><rect fill="#2563EB" height="0.7145934591208576" width="1" x="83" y="0.2854065408791424"></rect><rect fill="#2563EB" height="0.33299991551482416" width="1" x="84" y="0.6670000844851758"></rect><rect fill="#2563EB" height="0.37301746258570245" width="1" x="85" y="0.6269825374142975"></rect><rect fill="#2563EB" height="0.37675898615948644" width="1" x="86" y="0.6232410138405136"></rect><rect fill="#2563EB" height="0.4415493154752097" width="1" x="87" y="0.5584506845247903"></rect><rect fill="#2563EB" height="0.3731610906361976" width="1" x="88" y="0.6268389093638024"></rect><rect fill="#2563EB" height="0.3859410319063952" width="1" x="89" y="0.6140589680936048"></rect><rect fill="#2563EB" height="0.41266930802659924" width="1" x="90" y="0.5873306919734007"></rect><rect fill="#2563EB" height="0.3531610294794787" width="1" x="91" y="0.6468389705205213"></rect><rect fill="#2563EB" height="0.40331334842586813" width="1" x="92" y="0.5966866515741318"></rect><rect fill="#2563EB" height="0.388390421868455" width="1" x="93" y="0.6116095781315449"></rect><rect fill="#2563EB" height="0.371132304636655" width="1" x="94" y="0.628867695363345"></rect><rect fill="#2563EB" height="0.41859456029845193" width="1" x="95" y="0.581405439701548"></rect><rect fill="#2563EB" height="0.41200372389860934" width="1" x="96" y="0.5879962761013906"></rect><rect fill="#2563EB" height="0.23851476400416008" width="1" x="97" y="0.76148523599584"></rect><rect fill="#2563EB" height="0.06366378319414694" width="1" x="98" y="0.9363362168058531"></rect><rect fill="#2563EB" height="0.010965282616525495" width="1" x="99" y="0.9890347173834745"></rect></svg>