<svg xmlns="http://www.w3.org/2000/svg" preserveAspectRatio="none" viewBox="0 0 100 1"><rect fill="#2563EB" height="0.12599510902899383" width="1" x="0" y="0.8740048909710062"></rect><rect fill="#2563EB" height="0.5579163206541466" width="1" x="1" y="0.44208367934585335"></rect><rect fill="#2563EB" height="0.6098880766330541" width="1" x="2" y="0.3901119233669459"></rect><rect fill="#2563EB" height="0.5242986896408999" width="1" x="3" y="0.4757013103591001"></rect><rect fill="#2563EB" height="0.2866458588654246" width="1" x="4" y="0.7133541411345754"></rect><rect fill="#2563EB" height="0.4598036817564103" width="1" x="5" y="0.5401963182435897"></rect><rect fill="#2563EB" height="0.5569461977038616" width="1" x="6" y="0.44305380229613844"></rect><rect fill="#2563EB" height="0.7370779319847064" width="1" x="7" y="0.2629220680152936"></rect><rect fill="#2563EB" height="0.5975546486525745" width="1" x="8" y="0.40244535134742554"></rect><rect fill="#2563EB" height="0.6737198117241932" width="1" x="9" y="0.32628018827580685"></rect><rect fill="#2563EB" height="0.6148467138771039" width="1" x="10" y="0.3851532861228961"></rect><rect fill="#2563EB" height="0.7796814262847117" width="1" x="11" y="0.2203185737152883"></rect><rect fill="#2563EB" height="0.40089126196585123" width="1" x="12" y="0.5991087380341488"></rect><rect fill="#2563EB" height="0.7494175021920524" width="1" x="13" y="0.2505824978079476"></rect><rect fill="#2563EB" height="0.5570536280650699" width="1" x="14" y="0.44294637193493014"></rect><rect fill="#2563EB" height="0.6635470374933037" width="1" x="15" y="0.3364529625066963"></rect><rect fill="#2563EB" height="0.6187089301269106" width="1" x="16" y="0.38129106987308936"></rect><rect fill="#2563EB" height="0.7474364964717456" width="1" x="17" y="0.2525635035282544"></rect><rect fill="#2563EB" height="0.4134232202607113" width="1" x="18" y="0.5865767797392887"></rect><rect fill="#2563EB" height="0.6411199056447486" width="1" x="19" y="0.35888009435525137"></rect><rect fill="#2563EB" height="0.7101670215211486" width="1" x="20" y="0.28983297847885137"></rect><rect fill="#2563EB" height="0.690563088388746" width="1" x="21" y="0.309436911611254"></rect><rect fill="#2563EB" height="0.42176308936928897" width="1" x="22" y="0.578236910630711"></rect><rect fill="#2563EB" height="0.8902283987817132" width="1" x="23" y="0.10977160121828677"></rect><rect fill="#2563EB" height="1" width="1" x="24" y="0"></rect><rect fill="#2563EB" height="0.8637619952304263" width="1" x="25" y="0.1362380047695737"></rect><rect fill="#2563EB" height="0.8364105996067288" width="1" x="26" y="0.1635894003932712"></rect><rect fill="#2563EB" height="0.6044126777294909" width="1" x="27" y="0.3955873222705091"></rect><rect fill="#2563EB" height="0.9987972633335994" width="1" x="28" y="0.0012027366664005834"></rect><rect fill="#2563EB" height="0.7248176232531403" width="1" x="29" y="0.27518237674685975"></rect><rect fill="#2563EB" height="0.470039590142062" width="1" x="30" y="0.529960409857938"></rect><rect fill="#2563EB" height="0.4803902859081934" width="1" x="31" y="0.5196097140918066"></rect><rect fill="#2563EB" height="0.8118544667479689" width="1" x="32" y="0.1881455332520311"></rect><rect fill="#2563EB" height="0.7567991843778767" width="1" x="33" y="0.24320081562212326"></rect><rect fill="#2563EB" height="0.6927348095989706" width="1" x="34" y="0.3072651904010294"></rect><rect fill="#2563EB" height="0.7222449517277044" width="1" x="35" y="0.2777550482722956"></rect><rect fill="#2563EB" height="0.5340322195672189" width="1" x="36" y="0.4659677804327811"></rect><rect fill="#2563EB" height="0.6109882713073914" width="1" x="37" y="0.3890117286926086"></rect><rect fill="#2563EB" height="0.7485133359362006" width="1" x="38" y="0.2514866640637994"></rect><rect fill="#2563EB" height="0.6792577422183854" width="1" x="39" y="0.3207422577816146"></rect><rect fill="#2563EB" height="0.736785508035747" width="1" x="40" y="0.26321449196425295"></rect><rect fill="#2563EB" height="0.4709322271685031" width="1" x="41" y="0.529067772831497"></rect><rect fill="#2563EB" height="0.5749763716263864" width="1" x="42" y="0.4250236283736136"></rect><rect fill="#2563EB" height="0.42447843993142853" width="1" x="43" y="0.5755215600685715"></rect><rect fill="#2563EB" height="0.5826156522617134" width="1" x="44" y="0.4173843477382866"></rect><rect fill="#2563EB" height="0.6251091972380868" width="1" x="45" y="0.3748908027619132"></rect><rect fill="#2563EB" height="0.7273359543665209" width="1" x="46" y="0.2726640456334791"></rect><rect fill="#2563EB" height="0.6089531602534841" width="1" x="47" y="0.3910468397465159"></rect><rect fill="#2563EB" height="0.8898183897830582" width="1" x="48" y="0.11018161021694184"></rect><rect fill="#2563EB" height="0.7269637616346615" width="1" x="49" y="0.2730362383653385"></rect><rect fill="#2563EB" height="0.8539673539222933" width="1" x="50" y="0.14603264607770672"></rect><rect fill="#2563EB" height="0.8419079104875173" width="1" x="51" y="0.15809208951248266"></rect><rect fill="#2563EB" height="0.5163839043156374" width="1" x="52" y="0.4836160956843626"></rect><rect fill="#2563EB" height="0.7453514537437747" width="1" x="53" y="0.25464854625622535"></rect><rect fill="#2563EB" height="0.6652847021540457" width="1" x="54" y="0.33471529784595433"></rect><rect fill="#2563EB" height="0.6359679246292189" width="1" x="55" y="0.3640320753707811"></rect><rect fill="#2563EB" height="0.838224328839584" width="1" x="56" y="0.16177567116041602"></rect><rect fill="#2563EB" height="0.702194045259238" width="1" x="57" y="0.297805954740762"></rect><rect fill="#2563EB" height="0.6774544966252519" width="1" x="58" y="0.3225455033747481"></rect><rect fill="#2563EB" height="0.48480870958125305" width="1" x="59" y="0.515191290418747"></rect><rect fill="#2563EB" height="0.4208842950831405" width="1" x="60" y="0.5791157049168595"></rect><rect fill="#2563EB" height="0.5501753394531627" width="1" x="61" y="0.44982466054683734"></rect><rect fill="#2563EB" height="0.47537775441917474" width="1" x="62" y="0.5246222455808253"></rect><rect fill="#2563EB" height="0.28304085260018425" width="1" x="63" y="0.7169591473998158"></rect><rect fill="#2563EB" height="0.4305471215006793" width="1" x="64" y="0.5694528784993207"></rect><rect fill="#2563EB" height="0.44083242440742515" width="1" x="65" y="0.5591675755925749"></rect><rect fill="#2563EB" height="0.5918767156370973" width="1" x="66" y="0.4081232843629027"></rect><rect fill="#2563EB" height="0.5843092097294983" width="1" x="67" y="0.4156907902705017"></rect><rect fill="#2563EB" height="0.5088404839621546" width="1" x="68" y="0.49115951603784536"></rect><rect fill="#2563EB" height="0.4710730426339675" width="1" x="69" y="0.5289269573660325"></rect><rect fill="#2563EB" height="0.8315328392686734" width="1" x="70" y="0.16846716073132662"></rect><rect fill="#2563EB" height="0.6619765927019192" width="1" x="71" y="0.3380234072980808"></rect><rect fill="#2563EB" height="0.46715272313979284" width="1" x="72" y="0.5328472768602072"></rect><rect fill="#2563EB" height="0.392790596304403" width="1" x="73" y="0.6072094036955971"></rect><rect fill="#2563EB" height="0.5612660190145096" width="1" x="74" y="0.43873398098549043"></rect><rect fill="#2563EB" height="0.44584511012219186" width="1" x="75" y="0.5541548898778081"></rect><rect fill="#2563EB" height="0.6714760065574543" width="1" x="76" y="0.3285239934425457"></rect><rect fill="#2563EB" height="0.5249304234265103" width="1" x="77" y="0.4750695765734897"></rect><rect fill="#2563EB" height="0.8400298444740635" width="1" x="78" y="0.15997015552593652"></rect><rect fill="#2563EB" height="0.743594326641776" width="1" x="79" y="0.25640567335822395"></rect><rect fill="#2563EB" height="0.5422560704624285" width="1" x="80" y="0.4577439295375715"></rect><rect fill="#2563EB" height="0.6561552110374012" width="1" x="81" y="0.34384478896259885"></rect><rect fill="#2563EB" height="0.534483552803449" width="1" x="82" y="0.46551644719655105"></rect><rect fill="#2563EB" height="0.3511002825348073" width="1" x="83" y="0.6488997174651927"></rect><rect fill="#2563EB" height="0.6559284254164306" width="1" x="84" y="0.3440715745835694"></rect><rect fill="#2563EB" height="0.48797194709703184" width="1" x="85" y="0.5120280529029682"></rect><rect fill="#2563EB" height="0.9224721362364545" width="1" x="86" y="0.07752786376354548"></rect><rect fill="#2563EB" height="0.7270603730596643" width="1" x="87" y="0.2729396269403357"></rect><rect fill="#2563EB" height="0.5234608258452303" width="1" x="88" y="0.47653917415476965"></rect><rect fill="#2563EB" height="0.8672104663756833" width="1" x="89" y="0.13278953362431667"></rect><rect fill="#2563EB" height="0.7623717265307172" width="1" x="90" y="0.23762827346928284"></rect><rect fill="#2563EB" height="0.41033922933589456" width="1" x="91" y="0.5896607706641055"></rect><rect fill="#2563EB" height="0.47596647332045827" width="1" x="92" y="0.5240335266795417"></rect><rect fill="#2563EB" height="0.37384978238415734" width="1" x="93" y="0.6261502176158427"></rect><rect fill="#2563EB" height="0.28730644557327983" width="1" x="94" y="0.7126935544267201"></rect><rect fill="#2563EB" height="0.5298238096292479" width="1" x="95" y="0.4701761903707521"></rect><rect fill="#2563EB" height="0.18999825605764595" width="1" x="96" y="0.810001743942354"></rect><rect fill="#2563EB" height="0.07251230742477356" width="1" x="97" y="0.9274876925752265"></rect><rect fill="#2563EB" height="0.007489204809487706" width="1" x="98" y="0.9925107951905123"></rect><rect fill="#2563EB" height="0.001033979505265221" width="1" x="99" y="0.9989660204947348"></rect></svg>