<svg xmlns="http://www.w3.org/2000/svg" preserveAspectRatio="none" viewBox="0 0 100 1"><rect fill="#2563EB" height="0.09862147273690137" width="1" x="0" y="0.9013785272630986"></rect><rect fill="#2563EB" height="0.14055050567225555" width="1" x="1" y="0.8594494943277444"></rect><rect fill="#2563EB" height="0.13452828504019793" width="1" x="2" y="0.8654717149598021"></rect><rect fill="#2563EB" height="0.1431754213423278" width="1" x="3" y="0.8568245786576723"></rect><rect fill="#2563EB" height="0.1509537792055078" width="1" x="4" y="0.8490462207944922"></rect><rect fill="#2563EB" height="0.15364848551206528" width="1" x="5" y="0.8463515144879348"></rect><rect fill="#2563EB" height="0.15571518774618356" width="1" x="6" y="0.8442848122538165"></rect><rect fill="#2563EB" height="0.15015122348370247" width="1" x="7" y="0.8498487765162975"></rect><rect fill="#2563EB" height="0.32195864611353" width="1" x="8" y="0.67804135388647"></rect><rect fill="#2563EB" height="0.3823088366671348" width="1" x="9" y="0.6176911633328652"></rect><rect fill="#2563EB" height="0.3316617044407535" width="1" x="10" y="0.6683382955592465"></rect><rect fill="#2563EB" height="0.3469801605267464" width="1" x="11" y="0.6530198394732536"></rect><rect fill="#2563EB" height="0.2768558720813769" width="1" x="12" y="0.723144127918623"></rect><rect fill="#2563EB" height="0.3623892143109866" width="1" x="13" y="0.6376107856890134"></rect><rect fill="#2563EB" height="0.32552244269262565" width="1" x="14" y="0.6744775573073744"></rect><rect fill="#2563EB" height="0.44195184980375074" width="1" x="15" y="0.5580481501962493"></rect><rect fill="#2563EB" height="0.5746600052215242" width="1" x="16" y="0.42533999477847584"></rect><rect fill="#2563EB" height="0.5770019397258124" width="1" x="17" y="0.4229980602741876"></rect><rect fill="#2563EB" height="0.5227012199112235" width="1" x="18" y="0.47729878008877646"></rect><rect fill="#2563EB" height="0.557349954595757" width="1" x="19" y="0.442650045404243"></rect><rect fill="#2563EB" height="0.7580474871605437" width="1" x="20" y="0.2419525128394563"></rect><rect fill="#2563EB" height="0.7298924015204246" width="1" x="21" y="0.27010759847957544"></rect><rect fill="#2563EB" height="0.6659233076449851" width="1" x="22" y="0.3340766923550149"></rect><rect fill="#2563EB" height="1" width="1" x="23" y="0"></rect><rect fill="#2563EB" height="0.7069055363188619" width="1" x="24" y="0.2930944636811381"></rect><rect fill="#2563EB" height="0.6893502499194262" width="1" x="25" y="0.3106497500805738"></rect><rect fill="#2563EB" height="0.5699463075693818" width="1" x="26" y="0.4300536924306182"></rect><rect fill="#2563EB" height="0.5879170530844335" width="1" x="27" y="0.41208294691556646"></rect><rect fill="#2563EB" height="0.8935169609053024" width="1" x="28" y="0.10648303909469758"></rect><rect fill="#2563EB" height="0.6259815828579733" width="1" x="29" y="0.37401841714202666"></rect><rect fill="#2563EB" height="0.706498820650624" width="1" x="30" y="0.29350117934937603"></rect><rect fill="#2563EB" height="0.9573401855735655" width="1" x="31" y="0.04265981442643452"></rect><rect fill="#2563EB" height="0.5359838560377953" width="1" x="32" y="0.4640161439622047"></rect><rect fill="#2563EB" height="0.8353985403696721" width="1" x="33" y="0.1646014596303279"></rect><rect fill="#2563EB" height="0.5725271981345726" width="1" x="34" y="0.42747280186542735"></rect><rect fill="#2563EB" height="0.5695903387375315" width="1" x="35" y="0.4304096612624685"></rect><rect fill="#2563EB" height="0.5472538719798035" width="1" x="36" y="0.45274612802019654"></rect><rect fill="#2563EB" height="0.599445881094937" width="1" x="37" y="0.400554118905063"></rect><rect fill="#2563EB" height="0.74795956304454" width="1" x="38" y="0.25204043695545997"></rect><rect fill="#2563EB" height="0.8981487488591928" width="1" x="39" y="0.10185125114080718"></rect><rect fill="#2563EB" height="0.5865672166712744" width="1" x="40" y="0.4134327833287256"></rect><rect fill="#2563EB" height="0.8183413291277243" width="1" x="41" y="0.18165867087227572"></rect><rect fill="#2563EB" height="0.5622991210800626" width="1" x="42" y="0.43770087891993736"></rect><rect fill="#2563EB" height="0.5100172241391192" width="1" x="43" y="0.4899827758608808"></rect><rect fill="#2563EB" height="0.5039436824662583" width="1" x="44" y="0.4960563175337417"></rect><rect fill="#2563EB" height="0.6114587025734899" width="1" x="45" y="0.3885412974265101"></rect><rect fill="#2563EB" height="0.7034230305546558" width="1" x="46" y="0.2965769694453442"></rect><rect fill="#2563EB" height="0.8503978388858231" width="1" x="47" y="0.1496021611141769"></rect><rect fill="#2563EB" height="0.40270802526233074" width="1" x="48" y="0.5972919747376693"></rect><rect fill="#2563EB" height="0.3548440778716738" width="1" x="49" y="0.6451559221283262"></rect><rect fill="#2563EB" height="0.36145672776855825" width="1" x="50" y="0.6385432722314417"></rect><rect fill="#2563EB" height="0.634227722598135" width="1" x="51" y="0.365772277401865"></rect><rect fill="#2563EB" height="0.4779558755759255" width="1" x="52" y="0.5220441244240746"></rect><rect fill="#2563EB" height="0.4499338245220413" width="1" x="53" y="0.5500661754779588"></rect><rect fill="#2563EB" height="0.389851351165068" width="1" x="54" y="0.6101486488349319"></rect><rect fill="#2563EB" height="0.6044066070693696" width="1" x="55" y="0.39559339293063045"></rect><rect fill="#2563EB" height="0.6648914742687617" width="1" x="56" y="0.3351085257312383"></rect><rect fill="#2563EB" height="0.6102534990893689" width="1" x="57" y="0.3897465009106311"></rect><rect fill="#2563EB" height="0.6380989162484563" width="1" x="58" y="0.36190108375154373"></rect><rect fill="#2563EB" height="0.7068707104299244" width="1" x="59" y="0.29312928957007556"></rect><rect fill="#2563EB" height="0.6491442699258789" width="1" x="60" y="0.3508557300741211"></rect><rect fill="#2563EB" height="0.6686366320212876" width="1" x="61" y="0.33136336797871235"></rect><rect fill="#2563EB" height="0.7306095850580181" width="1" x="62" y="0.2693904149419819"></rect><rect fill="#2563EB" height="0.9397910973763267" width="1" x="63" y="0.06020890262367329"></rect><rect fill="#2563EB" height="0.6141252648128823" width="1" x="64" y="0.3858747351871177"></rect><rect fill="#2563EB" height="0.5406239773268487" width="1" x="65" y="0.45937602267315125"></rect><rect fill="#2563EB" height="0.6625343148458573" width="1" x="66" y="0.33746568515414266"></rect><rect fill="#2563EB" height="0.6716901281310429" width="1" x="67" y="0.3283098718689571"></rect><rect fill="#2563EB" height="0.6010343536232253" width="1" x="68" y="0.3989656463767747"></rect><rect fill="#2563EB" height="0.6882075736417032" width="1" x="69" y="0.31179242635829685"></rect><rect fill="#2563EB" height="0.796575935225492" width="1" x="70" y="0.20342406477450803"></rect><rect fill="#2563EB" height="0.8919760174126862" width="1" x="71" y="0.10802398258731383"></rect><rect fill="#2563EB" height="0.6864902824036222" width="1" x="72" y="0.3135097175963778"></rect><rect fill="#2563EB" height="0.6977409463829598" width="1" x="73" y="0.3022590536170402"></rect><rect fill="#2563EB" height="0.5687279067451917" width="1" x="74" y="0.4312720932548083"></rect><rect fill="#2563EB" height="0.5585463809981505" width="1" x="75" y="0.44145361900184954"></rect><rect fill="#2563EB" height="0.6887901890033842" width="1" x="76" y="0.3112098109966158"></rect><rect fill="#2563EB" height="0.7910196024872332" width="1" x="77" y="0.20898039751276676"></rect><rect fill="#2563EB" height="0.9776741328390984" width="1" x="78" y="0.02232586716090157"></rect><rect fill="#2563EB" height="0.694607365241845" width="1" x="79" y="0.30539263475815503"></rect><rect fill="#2563EB" height="0.5252181649548432" width="1" x="80" y="0.4747818350451568"></rect><rect fill="#2563EB" height="0.42426867360506937" width="1" x="81" y="0.5757313263949306"></rect><rect fill="#2563EB" height="0.47455252507289686" width="1" x="82" y="0.5254474749271032"></rect><rect fill="#2563EB" height="0.4609414521436888" width="1" x="83" y="0.5390585478563112"></rect><rect fill="#2563EB" height="0.4897476718728221" width="1" x="84" y="0.5102523281271779"></rect><rect fill="#2563EB" height="0.7487283384961394" width="1" x="85" y="0.2512716615038606"></rect><rect fill="#2563EB" height="0.8370476575912532" width="1" x="86" y="0.1629523424087468"></rect><rect fill="#2563EB" height="0.6459263074681714" width="1" x="87" y="0.35407369253182863"></rect><rect fill="#2563EB" height="0.7005890134904075" width="1" x="88" y="0.2994109865095925"></rect><rect fill="#2563EB" height="0.5633591228398745" width="1" x="89" y="0.43664087716012545"></rect><rect fill="#2563EB" height="0.7786958445899821" width="1" x="90" y="0.2213041554100179"></rect><rect fill="#2563EB" height="0.698439004086769" width="1" x="91" y="0.30156099591323104"></rect><rect fill="#2563EB" height="0.7117353285886213" width="1" x="92" y="0.2882646714113787"></rect><rect fill="#2563EB" height="0.8010718146560837" width="1" x="93" y="0.19892818534391632"></rect><rect fill="#2563EB" height="0.8014845984601304" width="1" x="94" y="0.19851540153986957"></rect><rect fill="#2563EB" height="0.6818437020314433" width="1" x="95" y="0.3181562979685567"></rect><rect fill="#2563EB" height="0.4262639439306117" width="1" x="96" y="0.5737360560693883"></rect><rect fill="#2563EB" height="0.06300909128049419" width="1" x="97" y="0.9369909087195059"></rect><rect fill="#2563EB" height="0.002880202127591917" width="1" x="98" y="0.9971197978724081"></rect><rect fill="#2563EB" height="0.0004918639086614476" width="1" x="99" y="0.9995081360913386"></rect></svg>