<svg xmlns="http://www.w3.org/2000/svg" preserveAspectRatio="none" viewBox="0 0 100 1"><rect fill="#2563EB" height="0.08596766555580597" width="1" x="0" y="0.9140323344441941"></rect><rect fill="#2563EB" height="0.2939404211299177" width="1" x="1" y="0.7060595788700823"></rect><rect fill="#2563EB" height="0.591304072716785" width="1" x="2" y="0.408695927283215"></rect><rect fill="#2563EB" height="0.5814400964397946" width="1" x="3" y="0.41855990356020545"></rect><rect fill="#2563EB" height="0.5639732503397173" width="1" x="4" y="0.43602674966028265"></rect><rect fill="#2563EB" height="0.7601649455071164" width="1" x="5" y="0.23983505449288356"></rect><rect fill="#2563EB" height="0.47687434414660146" width="1" x="6" y="0.5231256558533985"></rect><rect fill="#2563EB" height="0.3312853200443885" width="1" x="7" y="0.6687146799556115"></rect><rect fill="#2563EB" height="0.335714588393027" width="1" x="8" y="0.664285411606973"></rect><rect fill="#2563EB" height="0.3510724304303238" width="1" x="9" y="0.6489275695696761"></rect><rect fill="#2563EB" height="0.5084250194071518" width="1" x="10" y="0.4915749805928482"></rect><rect fill="#2563EB" height="0.3969872319919174" width="1" x="11" y="0.6030127680080826"></rect><rect fill="#2563EB" height="0.6735645362979479" width="1" x="12" y="0.3264354637020521"></rect><rect fill="#2563EB" height="0.4842109287959052" width="1" x="13" y="0.5157890712040948"></rect><rect fill="#2563EB" height="0.5618344300546342" width="1" x="14" y="0.4381655699453658"></rect><rect fill="#2563EB" height="0.6591388289602215" width="1" x="15" y="0.34086117103977853"></rect><rect fill="#2563EB" height="0.42858484453534024" width="1" x="16" y="0.5714151554646598"></rect><rect fill="#2563EB" height="0.3015078823675191" width="1" x="17" y="0.698492117632481"></rect><rect fill="#2563EB" height="0.2881336265309121" width="1" x="18" y="0.7118663734690879"></rect><rect fill="#2563EB" height="0.4325408996236445" width="1" x="19" y="0.5674591003763555"></rect><rect fill="#2563EB" height="0.4805182525761728" width="1" x="20" y="0.5194817474238271"></rect><rect fill="#2563EB" height="0.41316972709472133" width="1" x="21" y="0.5868302729052787"></rect><rect fill="#2563EB" height="0.752797252159476" width="1" x="22" y="0.24720274784052398"></rect><rect fill="#2563EB" height="0.47564178875992524" width="1" x="23" y="0.5243582112400748"></rect><rect fill="#2563EB" height="0.6618177480726287" width="1" x="24" y="0.3381822519273713"></rect><rect fill="#2563EB" height="0.5752636674934691" width="1" x="25" y="0.42473633250653087"></rect><rect fill="#2563EB" height="0.36003588504832346" width="1" x="26" y="0.6399641149516766"></rect><rect fill="#2563EB" height="0.29848192268937934" width="1" x="27" y="0.7015180773106207"></rect><rect fill="#2563EB" height="0.28348376894442884" width="1" x="28" y="0.7165162310555712"></rect><rect fill="#2563EB" height="0.45730784012822295" width="1" x="29" y="0.5426921598717771"></rect><rect fill="#2563EB" height="0.4242601192602036" width="1" x="30" y="0.5757398807397964"></rect><rect fill="#2563EB" height="0.5364499684761318" width="1" x="31" y="0.4635500315238682"></rect><rect fill="#2563EB" height="0.6518056998413778" width="1" x="32" y="0.3481943001586222"></rect><rect fill="#2563EB" height="0.5886529709516892" width="1" x="33" y="0.4113470290483108"></rect><rect fill="#2563EB" height="0.8071296915198672" width="1" x="34" y="0.19287030848013276"></rect><rect fill="#2563EB" height="0.5813771975932712" width="1" x="35" y="0.4186228024067288"></rect><rect fill="#2563EB" height="0.4055465813403116" width="1" x="36" y="0.5944534186596884"></rect><rect fill="#2563EB" height="0.36877322339165614" width="1" x="37" y="0.6312267766083439"></rect><rect fill="#2563EB" height="0.3522121935426043" width="1" x="38" y="0.6477878064573956"></rect><rect fill="#2563EB" height="0.7229604256563059" width="1" x="39" y="0.2770395743436941"></rect><rect fill="#2563EB" height="0.8025632640927093" width="1" x="40" y="0.19743673590729072"></rect><rect fill="#2563EB" height="0.8041971567786255" width="1" x="41" y="0.19580284322137453"></rect><rect fill="#2563EB" height="0.7502048678858105" width="1" x="42" y="0.24979513211418947"></rect><rect fill="#2563EB" height="0.804263963103266" width="1" x="43" y="0.19573603689673402"></rect><rect fill="#2563EB" height="0.9026478707092768" width="1" x="44" y="0.09735212929072323"></rect><rect fill="#2563EB" height="0.7656889626567586" width="1" x="45" y="0.23431103734324144"></rect><rect fill="#2563EB" height="0.640820896461375" width="1" x="46" y="0.35917910353862503"></rect><rect fill="#2563EB" height="0.5301560074604709" width="1" x="47" y="0.46984399253952913"></rect><rect fill="#2563EB" height="0.6974423363511377" width="1" x="48" y="0.3025576636488623"></rect><rect fill="#2563EB" height="0.7767131706299935" width="1" x="49" y="0.22328682937000655"></rect><rect fill="#2563EB" height="0.7714245192583932" width="1" x="50" y="0.22857548074160683"></rect><rect fill="#2563EB" height="0.8061607485836776" width="1" x="51" y="0.1938392514163224"></rect><rect fill="#2563EB" height="0.6083961070803716" width="1" x="52" y="0.3916038929196284"></rect><rect fill="#2563EB" height="0.8256244889511097" width="1" x="53" y="0.17437551104889026"></rect><rect fill="#2563EB" height="0.7983592489410228" width="1" x="54" y="0.20164075105897716"></rect><rect fill="#2563EB" height="0.7035014663332926" width="1" x="55" y="0.2964985336667074"></rect><rect fill="#2563EB" height="0.6155970069913911" width="1" x="56" y="0.3844029930086089"></rect><rect fill="#2563EB" height="0.583215284223552" width="1" x="57" y="0.41678471577644804"></rect><rect fill="#2563EB" height="0.6523775338165327" width="1" x="58" y="0.34762246618346726"></rect><rect fill="#2563EB" height="0.7166987907389403" width="1" x="59" y="0.2833012092610597"></rect><rect fill="#2563EB" height="0.6380595623682183" width="1" x="60" y="0.36194043763178174"></rect><rect fill="#2563EB" height="0.873241568672575" width="1" x="61" y="0.12675843132742504"></rect><rect fill="#2563EB" height="0.6049666794222262" width="1" x="62" y="0.39503332057777385"></rect><rect fill="#2563EB" height="0.8878879386539387" width="1" x="63" y="0.11211206134606133"></rect><rect fill="#2563EB" height="0.7447093438007687" width="1" x="64" y="0.2552906561992313"></rect><rect fill="#2563EB" height="0.5915801383028672" width="1" x="65" y="0.40841986169713285"></rect><rect fill="#2563EB" height="0.5619905031871957" width="1" x="66" y="0.4380094968128043"></rect><rect fill="#2563EB" height="0.532518414615316" width="1" x="67" y="0.467481585384684"></rect><rect fill="#2563EB" height="0.6896670069572852" width="1" x="68" y="0.3103329930427148"></rect><rect fill="#2563EB" height="0.7130285598059398" width="1" x="69" y="0.2869714401940602"></rect><rect fill="#2563EB" height="0.6615408263608065" width="1" x="70" y="0.33845917363919353"></rect><rect fill="#2563EB" height="0.787694395561365" width="1" x="71" y="0.212305604438635"></rect><rect fill="#2563EB" height="0.7620070065202013" width="1" x="72" y="0.23799299347979874"></rect><rect fill="#2563EB" height="0.892732576932369" width="1" x="73" y="0.10726742306763104"></rect><rect fill="#2563EB" height="0.7809914353154864" width="1" x="74" y="0.21900856468451357"></rect><rect fill="#2563EB" height="0.6171430683846254" width="1" x="75" y="0.3828569316153746"></rect><rect fill="#2563EB" height="0.47338053055715307" width="1" x="76" y="0.526619469442847"></rect><rect fill="#2563EB" height="0.5659877645342318" width="1" x="77" y="0.43401223546576817"></rect><rect fill="#2563EB" height="0.7753725111226879" width="1" x="78" y="0.2246274888773121"></rect><rect fill="#2563EB" height="0.7919277857970876" width="1" x="79" y="0.20807221420291244"></rect><rect fill="#2563EB" height="1" width="1" x="80" y="0"></rect><rect fill="#2563EB" height="0.9387449928574225" width="1" x="81" y="0.06125500714257748"></rect><rect fill="#2563EB" height="0.7566204431360007" width="1" x="82" y="0.24337955686399926"></rect><rect fill="#2563EB" height="0.7852115603365529" width="1" x="83" y="0.21478843966344707"></rect><rect fill="#2563EB" height="0.5189849230041571" width="1" x="84" y="0.4810150769958429"></rect><rect fill="#2563EB" height="0.4946151603000753" width="1" x="85" y="0.5053848396999248"></rect><rect fill="#2563EB" height="0.17727960568503115" width="1" x="86" y="0.8227203943149688"></rect><rect fill="#2563EB" height="0.06099709836517413" width="1" x="87" y="0.9390029016348259"></rect><rect fill="#2563EB" height="0.05977262820636599" width="1" x="88" y="0.940227371793634"></rect><rect fill="#2563EB" height="0.050109252212538605" width="1" x="89" y="0.9498907477874614"></rect><rect fill="#2563EB" height="0.05419532221261353" width="1" x="90" y="0.9458046777873865"></rect><rect fill="#2563EB" height="0.07151558618416481" width="1" x="91" y="0.9284844138158352"></rect><rect fill="#2563EB" height="0.05773145732038996" width="1" x="92" y="0.94226854267961"></rect><rect fill="#2563EB" height="0.010119322733382051" width="1" x="93" y="0.989880677266618"></rect><rect fill="#2563EB" height="0.0020173119369417476" width="1" x="94" y="0.9979826880630582"></rect><rect fill="#2563EB" height="0.0003602247960873089" width="1" x="95" y="0.9996397752039127"></rect><rect fill="#2563EB" height="0.00008648688658283757" width="1" x="96" y="0.9999135131134171"></rect><rect fill="#2563EB" height="0.0000025193328697092163" width="1" x="97" y="0.9999974806671303"></rect><rect fill="#2563EB" height="0" width="1" x="98" y="1"></rect><rect fill="#2563EB" height="0" width="1" x="99" y="1"></rect></svg>