<svg xmlns="http://www.w3.org/2000/svg" preserveAspectRatio="none" viewBox="0 0 100 1"><rect fill="#2563EB" height="0.7265854382655441" width="1" x="0" y="0.2734145617344559"></rect><rect fill="#2563EB" height="0.942177013243085" width="1" x="1" y="0.057822986756914996"></rect><rect fill="#2563EB" height="0.8213780651470354" width="1" x="2" y="0.17862193485296463"></rect><rect fill="#2563EB" height="0.9346518117572865" width="1" x="3" y="0.06534818824271349"></rect><rect fill="#2563EB" height="0.8670794846043297" width="1" x="4" y="0.1329205153956703"></rect><rect fill="#2563EB" height="0.99250204944604" width="1" x="5" y="0.0074979505539599645"></rect><rect fill="#2563EB" height="0.8302791390678177" width="1" x="6" y="0.1697208609321823"></rect><rect fill="#2563EB" height="0.8512554919166425" width="1" x="7" y="0.14874450808335749"></rect><rect fill="#2563EB" height="0.803539266287327" width="1" x="8" y="0.19646073371267303"></rect><rect fill="#2563EB" height="0.6649950746554775" width="1" x="9" y="0.33500492534452253"></rect><rect fill="#2563EB" height="0.645613023060233" width="1" x="10" y="0.35438697693976695"></rect><rect fill="#2563EB" height="0.6755397576095936" width="1" x="11" y="0.3244602423904064"></rect><rect fill="#2563EB" height="0.8491775045099194" width="1" x="12" y="0.15082249549008064"></rect><rect fill="#2563EB" height="0.8998517283541158" width="1" x="13" y="0.10014827164588425"></rect><rect fill="#2563EB" height="0.9233858633711647" width="1" x="14" y="0.07661413662883532"></rect><rect fill="#2563EB" height="0.7967197528173245" width="1" x="15" y="0.20328024718267546"></rect><rect fill="#2563EB" height="0.853357804986357" width="1" x="16" y="0.14664219501364295"></rect><rect fill="#2563EB" height="0.7344408058427087" width="1" x="17" y="0.26555919415729135"></rect><rect fill="#2563EB" height="0.5999056034536854" width="1" x="18" y="0.4000943965463146"></rect><rect fill="#2563EB" height="0.789129286876312" width="1" x="19" y="0.210870713123688"></rect><rect fill="#2563EB" height="0.8377915713306229" width="1" x="20" y="0.16220842866937712"></rect><rect fill="#2563EB" height="0.8608927894493885" width="1" x="21" y="0.13910721055061148"></rect><rect fill="#2563EB" height="0.8150340396123895" width="1" x="22" y="0.18496596038761048"></rect><rect fill="#2563EB" height="0.6867304959587416" width="1" x="23" y="0.3132695040412584"></rect><rect fill="#2563EB" height="0.7727740804313781" width="1" x="24" y="0.22722591956862193"></rect><rect fill="#2563EB" height="0.9970928635057422" width="1" x="25" y="0.002907136494257778"></rect><rect fill="#2563EB" height="0.9212877211985994" width="1" x="26" y="0.07871227880140064"></rect><rect fill="#2563EB" height="0.9856179864550971" width="1" x="27" y="0.014382013544902872"></rect><rect fill="#2563EB" height="0.8977000922811095" width="1" x="28" y="0.10229990771889053"></rect><rect fill="#2563EB" height="0.9243755052148184" width="1" x="29" y="0.07562449478518163"></rect><rect fill="#2563EB" height="0.8234870242297242" width="1" x="30" y="0.1765129757702758"></rect><rect fill="#2563EB" height="0.8469882034839242" width="1" x="31" y="0.15301179651607577"></rect><rect fill="#2563EB" height="0.9122148476533922" width="1" x="32" y="0.08778515234660778"></rect><rect fill="#2563EB" height="0.6982617654314" width="1" x="33" y="0.30173823456860005"></rect><rect fill="#2563EB" height="0.706862036874054" width="1" x="34" y="0.293137963125946"></rect><rect fill="#2563EB" height="0.8237145301110828" width="1" x="35" y="0.17628546988891725"></rect><rect fill="#2563EB" height="0.8950959607738501" width="1" x="36" y="0.10490403922614988"></rect><rect fill="#2563EB" height="0.8758025440534641" width="1" x="37" y="0.12419745594653586"></rect><rect fill="#2563EB" height="0.9002507115521822" width="1" x="38" y="0.09974928844781783"></rect><rect fill="#2563EB" height="0.942900016332132" width="1" x="39" y="0.05709998366786795"></rect><rect fill="#2563EB" height="0.999870670983246" width="1" x="40" y="0.00012932901675399844"></rect><rect fill="#2563EB" height="0.6956833611158338" width="1" x="41" y="0.30431663888416616"></rect><rect fill="#2563EB" height="0.7024295650380344" width="1" x="42" y="0.29757043496196556"></rect><rect fill="#2563EB" height="0.6953267745722903" width="1" x="43" y="0.3046732254277097"></rect><rect fill="#2563EB" height="0.9041646531630274" width="1" x="44" y="0.09583534683697259"></rect><rect fill="#2563EB" height="0.8623988693330759" width="1" x="45" y="0.13760113066692414"></rect><rect fill="#2563EB" height="0.8625498896424776" width="1" x="46" y="0.13745011035752241"></rect><rect fill="#2563EB" height="0.7935298698011498" width="1" x="47" y="0.2064701301988502"></rect><rect fill="#2563EB" height="0.811190462923289" width="1" x="48" y="0.188809537076711"></rect><rect fill="#2563EB" height="0.8198268743702969" width="1" x="49" y="0.1801731256297031"></rect><rect fill="#2563EB" height="0.8894490959202017" width="1" x="50" y="0.11055090407979828"></rect><rect fill="#2563EB" height="0.9317585137866958" width="1" x="51" y="0.06824148621330417"></rect><rect fill="#2563EB" height="0.811445519402602" width="1" x="52" y="0.188554480597398"></rect><rect fill="#2563EB" height="0.9927283053149198" width="1" x="53" y="0.0072716946850801545"></rect><rect fill="#2563EB" height="0.9154303538920291" width="1" x="54" y="0.08456964610797091"></rect><rect fill="#2563EB" height="0.8674605861955567" width="1" x="55" y="0.13253941380444334"></rect><rect fill="#2563EB" height="0.981123862418333" width="1" x="56" y="0.018876137581666952"></rect><rect fill="#2563EB" height="0.8422869177021931" width="1" x="57" y="0.1577130822978069"></rect><rect fill="#2563EB" height="0.6383614235893216" width="1" x="58" y="0.3616385764106784"></rect><rect fill="#2563EB" height="0.8123841918597245" width="1" x="59" y="0.18761580814027545"></rect><rect fill="#2563EB" height="0.9563280113453932" width="1" x="60" y="0.04367198865460675"></rect><rect fill="#2563EB" height="0.876145555887151" width="1" x="61" y="0.12385444411284896"></rect><rect fill="#2563EB" height="0.7882540481631415" width="1" x="62" y="0.21174595183685851"></rect><rect fill="#2563EB" height="0.8772606899086447" width="1" x="63" y="0.1227393100913553"></rect><rect fill="#2563EB" height="0.8138562644275066" width="1" x="64" y="0.18614373557249342"></rect><rect fill="#2563EB" height="0.8373562068814538" width="1" x="65" y="0.16264379311854615"></rect><rect fill="#2563EB" height="0.8047799770102058" width="1" x="66" y="0.19522002298979424"></rect><rect fill="#2563EB" height="0.8233415453406943" width="1" x="67" y="0.17665845465930574"></rect><rect fill="#2563EB" height="0.7484896063603791" width="1" x="68" y="0.2515103936396209"></rect><rect fill="#2563EB" height="1" width="1" x="69" y="0"></rect><rect fill="#2563EB" height="0.7891929722478355" width="1" x="70" y="0.21080702775216453"></rect><rect fill="#2563EB" height="0.9120115070424034" width="1" x="71" y="0.08798849295759659"></rect><rect fill="#2563EB" height="0.6705133097377444" width="1" x="72" y="0.32948669026225563"></rect><rect fill="#2563EB" height="0.7793947797488218" width="1" x="73" y="0.22060522025117824"></rect><rect fill="#2563EB" height="0.6817630289622423" width="1" x="74" y="0.3182369710377577"></rect><rect fill="#2563EB" height="0.9633906718098622" width="1" x="75" y="0.036609328190137846"></rect><rect fill="#2563EB" height="0.7116389501859782" width="1" x="76" y="0.2883610498140218"></rect><rect fill="#2563EB" height="0.9439821596974017" width="1" x="77" y="0.056017840302598265"></rect><rect fill="#2563EB" height="0.706667946144626" width="1" x="78" y="0.293332053855374"></rect><rect fill="#2563EB" height="0.8359463494078594" width="1" x="79" y="0.1640536505921406"></rect><rect fill="#2563EB" height="0.7748687880718359" width="1" x="80" y="0.2251312119281641"></rect><rect fill="#2563EB" height="0.7577262358420246" width="1" x="81" y="0.2422737641579754"></rect><rect fill="#2563EB" height="0.677499918127594" width="1" x="82" y="0.322500081872406"></rect><rect fill="#2563EB" height="0.7396392704012651" width="1" x="83" y="0.2603607295987349"></rect><rect fill="#2563EB" height="0.7340783050716031" width="1" x="84" y="0.2659216949283969"></rect><rect fill="#2563EB" height="0.8660796406740947" width="1" x="85" y="0.1339203593259053"></rect><rect fill="#2563EB" height="0.776999033876494" width="1" x="86" y="0.22300096612350595"></rect><rect fill="#2563EB" height="0.9397063958264357" width="1" x="87" y="0.06029360417356433"></rect><rect fill="#2563EB" height="0.8463602726155524" width="1" x="88" y="0.15363972738444764"></rect><rect fill="#2563EB" height="0.7696621537886926" width="1" x="89" y="0.23033784621130737"></rect><rect fill="#2563EB" height="0.595474659191026" width="1" x="90" y="0.40452534080897395"></rect><rect fill="#2563EB" height="0.6595218518083567" width="1" x="91" y="0.34047814819164335"></rect><rect fill="#2563EB" height="0.6584009519639329" width="1" x="92" y="0.3415990480360671"></rect><rect fill="#2563EB" height="0.8849780141641589" width="1" x="93" y="0.11502198583584111"></rect><rect fill="#2563EB" height="0.7693556424935207" width="1" x="94" y="0.23064435750647927"></rect><rect fill="#2563EB" height="0.7588892659550608" width="1" x="95" y="0.2411107340449392"></rect><rect fill="#2563EB" height="0.7711797289519342" width="1" x="96" y="0.2288202710480658"></rect><rect fill="#2563EB" height="0.46616428666485027" width="1" x="97" y="0.5338357133351497"></rect><rect fill="#2563EB" height="0.0076624185873900835" width="1" x="98" y="0.99233758141261"></rect><rect fill="#2563EB" height="0.00017511911827055682" width="1" x="99" y="0.9998248808817295"></rect></svg>