<svg xmlns="http://www.w3.org/2000/svg" preserveAspectRatio="none" viewBox="0 0 100 1"><rect fill="#2563EB" height="0.35629218866967033" width="1" x="0" y="0.6437078113303296"></rect><rect fill="#2563EB" height="0.3921201641390152" width="1" x="1" y="0.6078798358609848"></rect><rect fill="#2563EB" height="0.42175774851563164" width="1" x="2" y="0.5782422514843684"></rect><rect fill="#2563EB" height="0.40523884411610817" width="1" x="3" y="0.5947611558838919"></rect><rect fill="#2563EB" height="0.4679437459681688" width="1" x="4" y="0.5320562540318312"></rect><rect fill="#2563EB" height="0.38774022236914474" width="1" x="5" y="0.6122597776308553"></rect><rect fill="#2563EB" height="0.434602534299024" width="1" x="6" y="0.5653974657009759"></rect><rect fill="#2563EB" height="0.411121498176494" width="1" x="7" y="0.588878501823506"></rect><rect fill="#2563EB" height="0.3712181883640648" width="1" x="8" y="0.6287818116359352"></rect><rect fill="#2563EB" height="0.4295987603417862" width="1" x="9" y="0.5704012396582139"></rect><rect fill="#2563EB" height="0.43451002394684146" width="1" x="10" y="0.5654899760531585"></rect><rect fill="#2563EB" height="0.3948608897055579" width="1" x="11" y="0.6051391102944421"></rect><rect fill="#2563EB" height="0.267107525153317" width="1" x="12" y="0.732892474846683"></rect><rect fill="#2563EB" height="0.7884473258546107" width="1" x="13" y="0.21155267414538925"></rect><rect fill="#2563EB" height="0.619004438692029" width="1" x="14" y="0.38099556130797096"></rect><rect fill="#2563EB" height="0.672222870069037" width="1" x="15" y="0.327777129930963"></rect><rect fill="#2563EB" height="0.7540600133482876" width="1" x="16" y="0.24593998665171235"></rect><rect fill="#2563EB" height="0.632047308168559" width="1" x="17" y="0.36795269183144097"></rect><rect fill="#2563EB" height="0.6749220237241783" width="1" x="18" y="0.3250779762758217"></rect><rect fill="#2563EB" height="0.6607185463511401" width="1" x="19" y="0.33928145364885987"></rect><rect fill="#2563EB" height="0.656082006441962" width="1" x="20" y="0.343917993558038"></rect><rect fill="#2563EB" height="0.7345883283705915" width="1" x="21" y="0.2654116716294085"></rect><rect fill="#2563EB" height="0.689087975463339" width="1" x="22" y="0.310912024536661"></rect><rect fill="#2563EB" height="0.6990715928338576" width="1" x="23" y="0.30092840716614244"></rect><rect fill="#2563EB" height="0.7186367889558242" width="1" x="24" y="0.28136321104417583"></rect><rect fill="#2563EB" height="0.6133246215646116" width="1" x="25" y="0.38667537843538835"></rect><rect fill="#2563EB" height="0.6907301158280095" width="1" x="26" y="0.30926988417199053"></rect><rect fill="#2563EB" height="0.7337770958404929" width="1" x="27" y="0.2662229041595071"></rect><rect fill="#2563EB" height="0.6852799884202765" width="1" x="28" y="0.3147200115797235"></rect><rect fill="#2563EB" height="0.7560852871122978" width="1" x="29" y="0.24391471288770217"></rect><rect fill="#2563EB" height="0.662403858270613" width="1" x="30" y="0.337596141729387"></rect><rect fill="#2563EB" height="0.777681330933138" width="1" x="31" y="0.22231866906686204"></rect><rect fill="#2563EB" height="0.9024717151103258" width="1" x="32" y="0.09752828488967424"></rect><rect fill="#2563EB" height="0.7068538752830501" width="1" x="33" y="0.2931461247169499"></rect><rect fill="#2563EB" height="0.8231174632688942" width="1" x="34" y="0.17688253673110577"></rect><rect fill="#2563EB" height="0.9208646519796537" width="1" x="35" y="0.07913534802034627"></rect><rect fill="#2563EB" height="0.6123327074192632" width="1" x="36" y="0.38766729258073684"></rect><rect fill="#2563EB" height="0.5940347700795393" width="1" x="37" y="0.4059652299204607"></rect><rect fill="#2563EB" height="0.7631699046325988" width="1" x="38" y="0.23683009536740118"></rect><rect fill="#2563EB" height="0.7119142262519141" width="1" x="39" y="0.28808577374808586"></rect><rect fill="#2563EB" height="0.7437767687291928" width="1" x="40" y="0.25622323127080715"></rect><rect fill="#2563EB" height="0.7606690219598077" width="1" x="41" y="0.23933097804019232"></rect><rect fill="#2563EB" height="0.8360871833375961" width="1" x="42" y="0.16391281666240387"></rect><rect fill="#2563EB" height="0.7725298914929177" width="1" x="43" y="0.22747010850708227"></rect><rect fill="#2563EB" height="0.7234822812544103" width="1" x="44" y="0.2765177187455897"></rect><rect fill="#2563EB" height="0.6940113344350272" width="1" x="45" y="0.30598866556497284"></rect><rect fill="#2563EB" height="0.7962162062699055" width="1" x="46" y="0.20378379373009448"></rect><rect fill="#2563EB" height="0.7777317833074618" width="1" x="47" y="0.22226821669253816"></rect><rect fill="#2563EB" height="0.6765692295370709" width="1" x="48" y="0.3234307704629291"></rect><rect fill="#2563EB" height="0.8650322798242087" width="1" x="49" y="0.13496772017579128"></rect><rect fill="#2563EB" height="0.9457757587201026" width="1" x="50" y="0.054224241279897445"></rect><rect fill="#2563EB" height="0.7210699332352675" width="1" x="51" y="0.27893006676473253"></rect><rect fill="#2563EB" height="0.6203797525680103" width="1" x="52" y="0.37962024743198974"></rect><rect fill="#2563EB" height="0.7734512915460138" width="1" x="53" y="0.22654870845398623"></rect><rect fill="#2563EB" height="0.7483566578516158" width="1" x="54" y="0.25164334214838424"></rect><rect fill="#2563EB" height="0.725768506309815" width="1" x="55" y="0.27423149369018496"></rect><rect fill="#2563EB" height="0.7638176600210611" width="1" x="56" y="0.2361823399789389"></rect><rect fill="#2563EB" height="0.833389287146966" width="1" x="57" y="0.16661071285303397"></rect><rect fill="#2563EB" height="0.6804090969452384" width="1" x="58" y="0.31959090305476157"></rect><rect fill="#2563EB" height="0.7471303641129261" width="1" x="59" y="0.2528696358870739"></rect><rect fill="#2563EB" height="0.9573391013745941" width="1" x="60" y="0.042660898625405896"></rect><rect fill="#2563EB" height="0.878675401603941" width="1" x="61" y="0.12132459839605902"></rect><rect fill="#2563EB" height="0.9373194767770143" width="1" x="62" y="0.06268052322298567"></rect><rect fill="#2563EB" height="0.9263933793210015" width="1" x="63" y="0.07360662067899848"></rect><rect fill="#2563EB" height="0.8240834627044675" width="1" x="64" y="0.17591653729553247"></rect><rect fill="#2563EB" height="0.8179345232325991" width="1" x="65" y="0.18206547676740092"></rect><rect fill="#2563EB" height="0.8078658709334194" width="1" x="66" y="0.19213412906658056"></rect><rect fill="#2563EB" height="0.8789987117814889" width="1" x="67" y="0.12100128821851108"></rect><rect fill="#2563EB" height="0.9079799265118075" width="1" x="68" y="0.09202007348819252"></rect><rect fill="#2563EB" height="0.8559941866258922" width="1" x="69" y="0.14400581337410778"></rect><rect fill="#2563EB" height="0.7628647867563562" width="1" x="70" y="0.23713521324364384"></rect><rect fill="#2563EB" height="0.7790732280258692" width="1" x="71" y="0.2209267719741308"></rect><rect fill="#2563EB" height="0.9258065653320358" width="1" x="72" y="0.07419343466796424"></rect><rect fill="#2563EB" height="0.7833886766186019" width="1" x="73" y="0.2166113233813981"></rect><rect fill="#2563EB" height="0.8624686250522213" width="1" x="74" y="0.13753137494777867"></rect><rect fill="#2563EB" height="0.9893799760112097" width="1" x="75" y="0.01062002398879025"></rect><rect fill="#2563EB" height="0.8801102002958294" width="1" x="76" y="0.11988979970417057"></rect><rect fill="#2563EB" height="0.6465566057997134" width="1" x="77" y="0.3534433942002866"></rect><rect fill="#2563EB" height="0.7252022301235664" width="1" x="78" y="0.27479776987643356"></rect><rect fill="#2563EB" height="0.9528713110041613" width="1" x="79" y="0.04712868899583866"></rect><rect fill="#2563EB" height="0.7711774576963878" width="1" x="80" y="0.2288225423036122"></rect><rect fill="#2563EB" height="0.7980841169666765" width="1" x="81" y="0.20191588303332353"></rect><rect fill="#2563EB" height="0.7866377640617721" width="1" x="82" y="0.2133622359382279"></rect><rect fill="#2563EB" height="0.8193633653441421" width="1" x="83" y="0.1806366346558579"></rect><rect fill="#2563EB" height="0.6980302490650034" width="1" x="84" y="0.30196975093499656"></rect><rect fill="#2563EB" height="0.8868843931357329" width="1" x="85" y="0.11311560686426714"></rect><rect fill="#2563EB" height="0.9457134650162723" width="1" x="86" y="0.05428653498372771"></rect><rect fill="#2563EB" height="1" width="1" x="87" y="0"></rect><rect fill="#2563EB" height="0.85860700150031" width="1" x="88" y="0.14139299849969"></rect><rect fill="#2563EB" height="0.9303564216451786" width="1" x="89" y="0.06964357835482138"></rect><rect fill="#2563EB" height="0.872788855937132" width="1" x="90" y="0.12721114406286804"></rect><rect fill="#2563EB" height="0.7539027421143724" width="1" x="91" y="0.24609725788562764"></rect><rect fill="#2563EB" height="0.9023457565697234" width="1" x="92" y="0.09765424343027662"></rect><rect fill="#2563EB" height="0.8242351723909832" width="1" x="93" y="0.1757648276090168"></rect><rect fill="#2563EB" height="0.8025775742858942" width="1" x="94" y="0.19742242571410584"></rect><rect fill="#2563EB" height="0.9756186949397058" width="1" x="95" y="0.024381305060294234"></rect><rect fill="#2563EB" height="0.7864150543563271" width="1" x="96" y="0.21358494564367292"></rect><rect fill="#2563EB" height="0.7858645118937693" width="1" x="97" y="0.21413548810623073"></rect><rect fill="#2563EB" height="0.108829622203973" width="1" x="98" y="0.891170377796027"></rect><rect fill="#2563EB" height="0.0011974081193648924" width="1" x="99" y="0.9988025918806351"></rect></svg>