<svg xmlns="http://www.w3.org/2000/svg" preserveAspectRatio="none" viewBox="0 0 100 1"><rect fill="#2563EB" height="0.4912465242911123" width="1" x="0" y="0.5087534757088876"></rect><rect fill="#2563EB" height="0.5801886714254598" width="1" x="1" y="0.4198113285745402"></rect><rect fill="#2563EB" height="0.6559862919850789" width="1" x="2" y="0.34401370801492115"></rect><rect fill="#2563EB" height="0.4742009432044392" width="1" x="3" y="0.5257990567955608"></rect><rect fill="#2563EB" height="0.5141007060769411" width="1" x="4" y="0.48589929392305886"></rect><rect fill="#2563EB" height="0.6243535070640639" width="1" x="5" y="0.3756464929359361"></rect><rect fill="#2563EB" height="0.5279095256849433" width="1" x="6" y="0.4720904743150567"></rect><rect fill="#2563EB" height="0.6213202269071912" width="1" x="7" y="0.37867977309280876"></rect><rect fill="#2563EB" height="0.5261039176939897" width="1" x="8" y="0.4738960823060103"></rect><rect fill="#2563EB" height="0.5185570579869548" width="1" x="9" y="0.48144294201304516"></rect><rect fill="#2563EB" height="0.7482075921614634" width="1" x="10" y="0.2517924078385366"></rect><rect fill="#2563EB" height="0.6755149687823986" width="1" x="11" y="0.3244850312176014"></rect><rect fill="#2563EB" height="0.7951915305547281" width="1" x="12" y="0.20480846944527187"></rect><rect fill="#2563EB" height="0.5936511500842371" width="1" x="13" y="0.4063488499157629"></rect><rect fill="#2563EB" height="0.6411613901871476" width="1" x="14" y="0.3588386098128524"></rect><rect fill="#2563EB" height="0.7004692892413616" width="1" x="15" y="0.29953071075863835"></rect><rect fill="#2563EB" height="0.642694591539177" width="1" x="16" y="0.35730540846082304"></rect><rect fill="#2563EB" height="0.7344297980215168" width="1" x="17" y="0.26557020197848324"></rect><rect fill="#2563EB" height="0.6454938763231993" width="1" x="18" y="0.3545061236768007"></rect><rect fill="#2563EB" height="0.680927805065976" width="1" x="19" y="0.31907219493402394"></rect><rect fill="#2563EB" height="0.7466288207499442" width="1" x="20" y="0.2533711792500558"></rect><rect fill="#2563EB" height="0.6192442051616349" width="1" x="21" y="0.3807557948383651"></rect><rect fill="#2563EB" height="0.6683006347891772" width="1" x="22" y="0.33169936521082277"></rect><rect fill="#2563EB" height="0.5834567860615337" width="1" x="23" y="0.4165432139384663"></rect><rect fill="#2563EB" height="0.6136612962014942" width="1" x="24" y="0.38633870379850577"></rect><rect fill="#2563EB" height="0.8270005508297538" width="1" x="25" y="0.17299944917024623"></rect><rect fill="#2563EB" height="0.6393620142219825" width="1" x="26" y="0.36063798577801753"></rect><rect fill="#2563EB" height="0.7244853938905416" width="1" x="27" y="0.27551460610945844"></rect><rect fill="#2563EB" height="0.685529444801522" width="1" x="28" y="0.314470555198478"></rect><rect fill="#2563EB" height="0.6678690028073138" width="1" x="29" y="0.33213099719268624"></rect><rect fill="#2563EB" height="0.850310973756758" width="1" x="30" y="0.14968902624324198"></rect><rect fill="#2563EB" height="0.6832028193715024" width="1" x="31" y="0.3167971806284976"></rect><rect fill="#2563EB" height="0.8849061853158073" width="1" x="32" y="0.11509381468419266"></rect><rect fill="#2563EB" height="0.6201875902311396" width="1" x="33" y="0.37981240976886044"></rect><rect fill="#2563EB" height="0.6470908228270763" width="1" x="34" y="0.3529091771729237"></rect><rect fill="#2563EB" height="0.7565795525401926" width="1" x="35" y="0.2434204474598074"></rect><rect fill="#2563EB" height="0.6612185281836158" width="1" x="36" y="0.3387814718163842"></rect><rect fill="#2563EB" height="0.7814987257806663" width="1" x="37" y="0.21850127421933374"></rect><rect fill="#2563EB" height="0.994630151188924" width="1" x="38" y="0.00536984881107605"></rect><rect fill="#2563EB" height="0.849673213946977" width="1" x="39" y="0.15032678605302296"></rect><rect fill="#2563EB" height="0.8726344018741033" width="1" x="40" y="0.12736559812589665"></rect><rect fill="#2563EB" height="0.6546777011321904" width="1" x="41" y="0.34532229886780963"></rect><rect fill="#2563EB" height="1" width="1" x="42" y="0"></rect><rect fill="#2563EB" height="0.5973009598392148" width="1" x="43" y="0.40269904016078517"></rect><rect fill="#2563EB" height="0.6576598164704324" width="1" x="44" y="0.34234018352956763"></rect><rect fill="#2563EB" height="0.7983756578776279" width="1" x="45" y="0.20162434212237212"></rect><rect fill="#2563EB" height="0.6029498173087776" width="1" x="46" y="0.3970501826912224"></rect><rect fill="#2563EB" height="0.8273366603252854" width="1" x="47" y="0.1726633396747146"></rect><rect fill="#2563EB" height="0.9397822067829779" width="1" x="48" y="0.06021779321702214"></rect><rect fill="#2563EB" height="0.8831613094949671" width="1" x="49" y="0.11683869050503293"></rect><rect fill="#2563EB" height="0.7991324331379134" width="1" x="50" y="0.20086756686208662"></rect><rect fill="#2563EB" height="0.7065224789972083" width="1" x="51" y="0.2934775210027917"></rect><rect fill="#2563EB" height="0.9419933795745425" width="1" x="52" y="0.058006620425457456"></rect><rect fill="#2563EB" height="0.721363019636252" width="1" x="53" y="0.27863698036374795"></rect><rect fill="#2563EB" height="0.6400915311090065" width="1" x="54" y="0.3599084688909935"></rect><rect fill="#2563EB" height="0.8196831374678051" width="1" x="55" y="0.18031686253219492"></rect><rect fill="#2563EB" height="0.6570376322494862" width="1" x="56" y="0.3429623677505138"></rect><rect fill="#2563EB" height="0.8471084625680771" width="1" x="57" y="0.15289153743192285"></rect><rect fill="#2563EB" height="0.6183644701900209" width="1" x="58" y="0.38163552980997906"></rect><rect fill="#2563EB" height="0.7339834894895929" width="1" x="59" y="0.2660165105104071"></rect><rect fill="#2563EB" height="0.8260122963616673" width="1" x="60" y="0.1739877036383327"></rect><rect fill="#2563EB" height="0.7016728604510455" width="1" x="61" y="0.2983271395489545"></rect><rect fill="#2563EB" height="0.860048878209016" width="1" x="62" y="0.139951121790984"></rect><rect fill="#2563EB" height="0.7130297251471062" width="1" x="63" y="0.28697027485289384"></rect><rect fill="#2563EB" height="0.7639030907740512" width="1" x="64" y="0.23609690922594884"></rect><rect fill="#2563EB" height="0.8427193677516177" width="1" x="65" y="0.1572806322483823"></rect><rect fill="#2563EB" height="0.6329324576995176" width="1" x="66" y="0.36706754230048244"></rect><rect fill="#2563EB" height="0.8017910425226191" width="1" x="67" y="0.19820895747738088"></rect><rect fill="#2563EB" height="0.5252638035621747" width="1" x="68" y="0.4747361964378253"></rect><rect fill="#2563EB" height="0.7084885330600731" width="1" x="69" y="0.2915114669399269"></rect><rect fill="#2563EB" height="0.47216837861103045" width="1" x="70" y="0.5278316213889696"></rect><rect fill="#2563EB" height="0.43130813874510315" width="1" x="71" y="0.5686918612548968"></rect><rect fill="#2563EB" height="0.3894892377230599" width="1" x="72" y="0.6105107622769401"></rect><rect fill="#2563EB" height="0.3165356808262286" width="1" x="73" y="0.6834643191737714"></rect><rect fill="#2563EB" height="0.4118334450405853" width="1" x="74" y="0.5881665549594147"></rect><rect fill="#2563EB" height="0.33923138444082196" width="1" x="75" y="0.6607686155591781"></rect><rect fill="#2563EB" height="0.38200569249295113" width="1" x="76" y="0.6179943075070489"></rect><rect fill="#2563EB" height="0.33693005267216825" width="1" x="77" y="0.6630699473278318"></rect><rect fill="#2563EB" height="0.372357406330557" width="1" x="78" y="0.627642593669443"></rect><rect fill="#2563EB" height="0.37990887100372395" width="1" x="79" y="0.620091128996276"></rect><rect fill="#2563EB" height="0.371501822158631" width="1" x="80" y="0.628498177841369"></rect><rect fill="#2563EB" height="0.42395490859736085" width="1" x="81" y="0.5760450914026392"></rect><rect fill="#2563EB" height="0.38588071783552325" width="1" x="82" y="0.6141192821644768"></rect><rect fill="#2563EB" height="0.32185714080483874" width="1" x="83" y="0.6781428591951613"></rect><rect fill="#2563EB" height="0.4102042050373311" width="1" x="84" y="0.5897957949626689"></rect><rect fill="#2563EB" height="0.33763819708915627" width="1" x="85" y="0.6623618029108438"></rect><rect fill="#2563EB" height="0.3675495828115592" width="1" x="86" y="0.6324504171884409"></rect><rect fill="#2563EB" height="0.36183233735337283" width="1" x="87" y="0.6381676626466272"></rect><rect fill="#2563EB" height="0.33256600911853246" width="1" x="88" y="0.6674339908814675"></rect><rect fill="#2563EB" height="0.55051300192339" width="1" x="89" y="0.44948699807660997"></rect><rect fill="#2563EB" height="0.6122760251109882" width="1" x="90" y="0.3877239748890118"></rect><rect fill="#2563EB" height="0.037063524545741" width="1" x="91" y="0.962936475454259"></rect><rect fill="#2563EB" height="0.0008676406893255436" width="1" x="92" y="0.9991323593106745"></rect><rect fill="#2563EB" height="0.000006772824854414964" width="1" x="93" y="0.9999932271751456"></rect><rect fill="#2563EB" height="0" width="1" x="94" y="1"></rect><rect fill="#2563EB" height="0" width="1" x="95" y="1"></rect><rect fill="#2563EB" height="0" width="1" x="96" y="1"></rect><rect fill="#2563EB" height="0" width="1" x="97" y="1"></rect><rect fill="#2563EB" height="0" width="1" x="98" y="1"></rect><rect fill="#2563EB" height="0" width="1" x="99" y="1"></rect></svg>