<svg xmlns="http://www.w3.org/2000/svg" preserveAspectRatio="none" viewBox="0 0 100 1"><rect fill="#2563EB" height="0.49218888352914847" width="1" x="0" y="0.5078111164708515"></rect><rect fill="#2563EB" height="0.46975030168824194" width="1" x="1" y="0.530249698311758"></rect><rect fill="#2563EB" height="0.49116632375626845" width="1" x="2" y="0.5088336762437315"></rect><rect fill="#2563EB" height="0.5516390111413042" width="1" x="3" y="0.4483609888586958"></rect><rect fill="#2563EB" height="0.567222635667704" width="1" x="4" y="0.43277736433229597"></rect><rect fill="#2563EB" height="0.5726408590048349" width="1" x="5" y="0.42735914099516514"></rect><rect fill="#2563EB" height="0.5710205219438202" width="1" x="6" y="0.42897947805617975"></rect><rect fill="#2563EB" height="0.6527691502905878" width="1" x="7" y="0.3472308497094122"></rect><rect fill="#2563EB" height="0.5679019029991487" width="1" x="8" y="0.43209809700085133"></rect><rect fill="#2563EB" height="0.5508030492146585" width="1" x="9" y="0.4491969507853415"></rect><rect fill="#2563EB" height="0.5566464071976042" width="1" x="10" y="0.44335359280239584"></rect><rect fill="#2563EB" height="0.5956530893019513" width="1" x="11" y="0.40434691069804873"></rect><rect fill="#2563EB" height="0.6701426994158187" width="1" x="12" y="0.3298573005841813"></rect><rect fill="#2563EB" height="0.577134310203255" width="1" x="13" y="0.422865689796745"></rect><rect fill="#2563EB" height="0.5557850975970466" width="1" x="14" y="0.44421490240295336"></rect><rect fill="#2563EB" height="0.515226565695207" width="1" x="15" y="0.484773434304793"></rect><rect fill="#2563EB" height="0.5248983266604327" width="1" x="16" y="0.4751016733395673"></rect><rect fill="#2563EB" height="0.4920321698116697" width="1" x="17" y="0.5079678301883304"></rect><rect fill="#2563EB" height="0.5433232587887866" width="1" x="18" y="0.4566767412112134"></rect><rect fill="#2563EB" height="0.5223600241805987" width="1" x="19" y="0.4776399758194013"></rect><rect fill="#2563EB" height="0.5039154368959865" width="1" x="20" y="0.4960845631040135"></rect><rect fill="#2563EB" height="0.46174541899305027" width="1" x="21" y="0.5382545810069497"></rect><rect fill="#2563EB" height="0.6244803735166817" width="1" x="22" y="0.37551962648331827"></rect><rect fill="#2563EB" height="0.5143247613775683" width="1" x="23" y="0.48567523862243167"></rect><rect fill="#2563EB" height="0.5001879437910499" width="1" x="24" y="0.4998120562089501"></rect><rect fill="#2563EB" height="0.521169535721707" width="1" x="25" y="0.478830464278293"></rect><rect fill="#2563EB" height="0.49746575945324095" width="1" x="26" y="0.502534240546759"></rect><rect fill="#2563EB" height="0.4802964631789473" width="1" x="27" y="0.5197035368210527"></rect><rect fill="#2563EB" height="0.5001038325783767" width="1" x="28" y="0.49989616742162335"></rect><rect fill="#2563EB" height="0.6451343228201344" width="1" x="29" y="0.3548656771798656"></rect><rect fill="#2563EB" height="0.5592322139930906" width="1" x="30" y="0.44076778600690936"></rect><rect fill="#2563EB" height="0.5405499279117472" width="1" x="31" y="0.45945007208825284"></rect><rect fill="#2563EB" height="0.48847530947511786" width="1" x="32" y="0.5115246905248821"></rect><rect fill="#2563EB" height="0.4626424091588468" width="1" x="33" y="0.5373575908411532"></rect><rect fill="#2563EB" height="0.49786068840723163" width="1" x="34" y="0.5021393115927684"></rect><rect fill="#2563EB" height="0.5479290130522099" width="1" x="35" y="0.45207098694779013"></rect><rect fill="#2563EB" height="0.5886048021834239" width="1" x="36" y="0.4113951978165761"></rect><rect fill="#2563EB" height="0.6738966829847831" width="1" x="37" y="0.3261033170152169"></rect><rect fill="#2563EB" height="0.6143195767342486" width="1" x="38" y="0.38568042326575136"></rect><rect fill="#2563EB" height="0.593204952337098" width="1" x="39" y="0.406795047662902"></rect><rect fill="#2563EB" height="0.5419468872849653" width="1" x="40" y="0.4580531127150347"></rect><rect fill="#2563EB" height="0.5979892217030889" width="1" x="41" y="0.4020107782969111"></rect><rect fill="#2563EB" height="0.621715652367757" width="1" x="42" y="0.37828434763224295"></rect><rect fill="#2563EB" height="0.6144150863555274" width="1" x="43" y="0.38558491364447256"></rect><rect fill="#2563EB" height="0.5000659433560396" width="1" x="44" y="0.4999340566439604"></rect><rect fill="#2563EB" height="0.5425808004934989" width="1" x="45" y="0.4574191995065011"></rect><rect fill="#2563EB" height="0.5490796845787732" width="1" x="46" y="0.4509203154212268"></rect><rect fill="#2563EB" height="0.4911320116424713" width="1" x="47" y="0.5088679883575287"></rect><rect fill="#2563EB" height="0.6077209408569072" width="1" x="48" y="0.3922790591430928"></rect><rect fill="#2563EB" height="0.534464878939896" width="1" x="49" y="0.465535121060104"></rect><rect fill="#2563EB" height="0.5480707644744923" width="1" x="50" y="0.4519292355255077"></rect><rect fill="#2563EB" height="0.4987666619817512" width="1" x="51" y="0.5012333380182488"></rect><rect fill="#2563EB" height="0.7663573891757116" width="1" x="52" y="0.2336426108242884"></rect><rect fill="#2563EB" height="0.48874472471038843" width="1" x="53" y="0.5112552752896116"></rect><rect fill="#2563EB" height="0.5158676643331443" width="1" x="54" y="0.48413233566685565"></rect><rect fill="#2563EB" height="0.501170807332144" width="1" x="55" y="0.49882919266785597"></rect><rect fill="#2563EB" height="0.5366096522721694" width="1" x="56" y="0.4633903477278306"></rect><rect fill="#2563EB" height="0.5223273474737073" width="1" x="57" y="0.47767265252629265"></rect><rect fill="#2563EB" height="0.5359501591211835" width="1" x="58" y="0.4640498408788165"></rect><rect fill="#2563EB" height="0.5741244321686658" width="1" x="59" y="0.4258755678313342"></rect><rect fill="#2563EB" height="0.5385317046165673" width="1" x="60" y="0.4614682953834327"></rect><rect fill="#2563EB" height="0.4878347097241475" width="1" x="61" y="0.5121652902758524"></rect><rect fill="#2563EB" height="0.48533453929654596" width="1" x="62" y="0.514665460703454"></rect><rect fill="#2563EB" height="0.4951364504224626" width="1" x="63" y="0.5048635495775373"></rect><rect fill="#2563EB" height="0.5973268359952438" width="1" x="64" y="0.40267316400475617"></rect><rect fill="#2563EB" height="0.5437299500542425" width="1" x="65" y="0.4562700499457575"></rect><rect fill="#2563EB" height="0.5612778631791082" width="1" x="66" y="0.4387221368208918"></rect><rect fill="#2563EB" height="0.6577732042497518" width="1" x="67" y="0.34222679575024817"></rect><rect fill="#2563EB" height="0.5003684123154494" width="1" x="68" y="0.4996315876845506"></rect><rect fill="#2563EB" height="0.8522288419352179" width="1" x="69" y="0.14777115806478214"></rect><rect fill="#2563EB" height="0.5018204993327748" width="1" x="70" y="0.49817950066722516"></rect><rect fill="#2563EB" height="0.5886618021205773" width="1" x="71" y="0.4113381978794227"></rect><rect fill="#2563EB" height="0.6259588869516095" width="1" x="72" y="0.3740411130483905"></rect><rect fill="#2563EB" height="0.5584537772676752" width="1" x="73" y="0.4415462227323248"></rect><rect fill="#2563EB" height="0.5045089847873059" width="1" x="74" y="0.4954910152126941"></rect><rect fill="#2563EB" height="0.5569406116567734" width="1" x="75" y="0.44305938834322656"></rect><rect fill="#2563EB" height="0.5129637470992432" width="1" x="76" y="0.4870362529007568"></rect><rect fill="#2563EB" height="0.5169154833008204" width="1" x="77" y="0.4830845166991796"></rect><rect fill="#2563EB" height="0.8938087416801708" width="1" x="78" y="0.10619125831982923"></rect><rect fill="#2563EB" height="0.6532655606240785" width="1" x="79" y="0.3467344393759215"></rect><rect fill="#2563EB" height="0.49894212385607983" width="1" x="80" y="0.5010578761439202"></rect><rect fill="#2563EB" height="0.5392385687845275" width="1" x="81" y="0.46076143121547253"></rect><rect fill="#2563EB" height="0.5229621832834083" width="1" x="82" y="0.47703781671659173"></rect><rect fill="#2563EB" height="1" width="1" x="83" y="0"></rect><rect fill="#2563EB" height="0.5418571694150986" width="1" x="84" y="0.45814283058490135"></rect><rect fill="#2563EB" height="0.49838618323209477" width="1" x="85" y="0.5016138167679052"></rect><rect fill="#2563EB" height="0.5017469376517523" width="1" x="86" y="0.49825306234824773"></rect><rect fill="#2563EB" height="0.6487496431879743" width="1" x="87" y="0.35125035681202565"></rect><rect fill="#2563EB" height="0.6021246845666941" width="1" x="88" y="0.3978753154333059"></rect><rect fill="#2563EB" height="0.5342268743621151" width="1" x="89" y="0.46577312563788487"></rect><rect fill="#2563EB" height="0.5581082778109433" width="1" x="90" y="0.4418917221890567"></rect><rect fill="#2563EB" height="0.5061235148992164" width="1" x="91" y="0.49387648510078364"></rect><rect fill="#2563EB" height="0.12964862466407737" width="1" x="92" y="0.8703513753359227"></rect><rect fill="#2563EB" height="0.0011140651382353815" width="1" x="93" y="0.9988859348617646"></rect><rect fill="#2563EB" height="0.00010738134457851025" width="1" x="94" y="0.9998926186554215"></rect><rect fill="#2563EB" height="0.0000021345305873161565" width="1" x="95" y="0.9999978654694127"></rect><rect fill="#2563EB" height="0" width="1" x="96" y="1"></rect><rect fill="#2563EB" height="0" width="1" x="97" y="1"></rect><rect fill="#2563EB" height="0" width="1" x="98" y="1"></rect><rect fill="#2563EB" height="0" width="1" x="99" y="1"></rect></svg>