<svg xmlns="http://www.w3.org/2000/svg" preserveAspectRatio="none" viewBox="0 0 100 1"><rect fill="#2563EB" height="0.05545277509587154" width="1" x="0" y="0.9445472249041285"></rect><rect fill="#2563EB" height="0.15384062976046506" width="1" x="1" y="0.8461593702395349"></rect><rect fill="#2563EB" height="0.18279675816659682" width="1" x="2" y="0.8172032418334032"></rect><rect fill="#2563EB" height="0.16811536576690045" width="1" x="3" y="0.8318846342330996"></rect><rect fill="#2563EB" height="0.20253421305687105" width="1" x="4" y="0.797465786943129"></rect><rect fill="#2563EB" height="0.2110699221262512" width="1" x="5" y="0.7889300778737488"></rect><rect fill="#2563EB" height="0.2708937262220466" width="1" x="6" y="0.7291062737779535"></rect><rect fill="#2563EB" height="0.28772669157475955" width="1" x="7" y="0.7122733084252404"></rect><rect fill="#2563EB" height="0.3277419329486369" width="1" x="8" y="0.6722580670513632"></rect><rect fill="#2563EB" height="0.4237526576783442" width="1" x="9" y="0.5762473423216559"></rect><rect fill="#2563EB" height="0.7392125326452579" width="1" x="10" y="0.2607874673547421"></rect><rect fill="#2563EB" height="0.6322565129786086" width="1" x="11" y="0.36774348702139137"></rect><rect fill="#2563EB" height="0.6363766987498528" width="1" x="12" y="0.3636233012501472"></rect><rect fill="#2563EB" height="0.7397533770403175" width="1" x="13" y="0.2602466229596825"></rect><rect fill="#2563EB" height="0.6514094614230812" width="1" x="14" y="0.3485905385769188"></rect><rect fill="#2563EB" height="0.6094831437497722" width="1" x="15" y="0.3905168562502278"></rect><rect fill="#2563EB" height="0.5847815309898086" width="1" x="16" y="0.41521846901019144"></rect><rect fill="#2563EB" height="0.6142597478130797" width="1" x="17" y="0.3857402521869203"></rect><rect fill="#2563EB" height="0.7641273709211764" width="1" x="18" y="0.23587262907882356"></rect><rect fill="#2563EB" height="0.6598352873729577" width="1" x="19" y="0.3401647126270423"></rect><rect fill="#2563EB" height="0.6413600607096565" width="1" x="20" y="0.35863993929034355"></rect><rect fill="#2563EB" height="0.622293531527658" width="1" x="21" y="0.377706468472342"></rect><rect fill="#2563EB" height="0.7059133080452958" width="1" x="22" y="0.29408669195470416"></rect><rect fill="#2563EB" height="0.7141295362172551" width="1" x="23" y="0.28587046378274494"></rect><rect fill="#2563EB" height="0.6391637923640426" width="1" x="24" y="0.36083620763595736"></rect><rect fill="#2563EB" height="0.7235230843678289" width="1" x="25" y="0.27647691563217114"></rect><rect fill="#2563EB" height="0.6292234166597359" width="1" x="26" y="0.3707765833402641"></rect><rect fill="#2563EB" height="0.8349198046099018" width="1" x="27" y="0.16508019539009822"></rect><rect fill="#2563EB" height="0.8722887028080751" width="1" x="28" y="0.12771129719192487"></rect><rect fill="#2563EB" height="0.5921296198727051" width="1" x="29" y="0.40787038012729493"></rect><rect fill="#2563EB" height="0.6438573297207222" width="1" x="30" y="0.3561426702792778"></rect><rect fill="#2563EB" height="0.6405308843921197" width="1" x="31" y="0.3594691156078803"></rect><rect fill="#2563EB" height="0.6296586447267842" width="1" x="32" y="0.37034135527321577"></rect><rect fill="#2563EB" height="0.7245171328804029" width="1" x="33" y="0.27548286711959713"></rect><rect fill="#2563EB" height="0.7553625430101771" width="1" x="34" y="0.24463745698982287"></rect><rect fill="#2563EB" height="0.8715983308327131" width="1" x="35" y="0.1284016691672869"></rect><rect fill="#2563EB" height="0.8619680473569936" width="1" x="36" y="0.13803195264300638"></rect><rect fill="#2563EB" height="0.7201347205049338" width="1" x="37" y="0.27986527949506623"></rect><rect fill="#2563EB" height="0.6853379837342917" width="1" x="38" y="0.31466201626570833"></rect><rect fill="#2563EB" height="0.6618393698142349" width="1" x="39" y="0.33816063018576514"></rect><rect fill="#2563EB" height="0.6802034577688697" width="1" x="40" y="0.3197965422311303"></rect><rect fill="#2563EB" height="0.6611726683006911" width="1" x="41" y="0.3388273316993089"></rect><rect fill="#2563EB" height="0.6061548368331912" width="1" x="42" y="0.39384516316680884"></rect><rect fill="#2563EB" height="0.769267113211333" width="1" x="43" y="0.230732886788667"></rect><rect fill="#2563EB" height="0.8493723005259923" width="1" x="44" y="0.15062769947400767"></rect><rect fill="#2563EB" height="0.8402164043856654" width="1" x="45" y="0.15978359561433464"></rect><rect fill="#2563EB" height="0.7704619229786765" width="1" x="46" y="0.22953807702132345"></rect><rect fill="#2563EB" height="0.8278974106988035" width="1" x="47" y="0.17210258930119648"></rect><rect fill="#2563EB" height="0.8439602175398412" width="1" x="48" y="0.15603978246015882"></rect><rect fill="#2563EB" height="0.8590802220313261" width="1" x="49" y="0.14091977796867394"></rect><rect fill="#2563EB" height="0.8366594868091175" width="1" x="50" y="0.1633405131908825"></rect><rect fill="#2563EB" height="0.865995304062323" width="1" x="51" y="0.13400469593767705"></rect><rect fill="#2563EB" height="0.8212840271794658" width="1" x="52" y="0.1787159728205342"></rect><rect fill="#2563EB" height="0.8907976427506247" width="1" x="53" y="0.10920235724937533"></rect><rect fill="#2563EB" height="0.8418132277512426" width="1" x="54" y="0.15818677224875743"></rect><rect fill="#2563EB" height="0.8554072405866942" width="1" x="55" y="0.14459275941330585"></rect><rect fill="#2563EB" height="0.9076028126940335" width="1" x="56" y="0.09239718730596647"></rect><rect fill="#2563EB" height="0.8505906914201359" width="1" x="57" y="0.14940930857986412"></rect><rect fill="#2563EB" height="0.8930872065252714" width="1" x="58" y="0.1069127934747286"></rect><rect fill="#2563EB" height="0.8130846706822386" width="1" x="59" y="0.18691532931776145"></rect><rect fill="#2563EB" height="0.9183419248633758" width="1" x="60" y="0.08165807513662415"></rect><rect fill="#2563EB" height="0.8397964380361824" width="1" x="61" y="0.16020356196381758"></rect><rect fill="#2563EB" height="0.8166707252050848" width="1" x="62" y="0.18332927479491523"></rect><rect fill="#2563EB" height="0.8537778314358483" width="1" x="63" y="0.1462221685641517"></rect><rect fill="#2563EB" height="0.9355432757488963" width="1" x="64" y="0.06445672425110371"></rect><rect fill="#2563EB" height="0.9232932326213209" width="1" x="65" y="0.0767067673786791"></rect><rect fill="#2563EB" height="0.8432895680398239" width="1" x="66" y="0.1567104319601761"></rect><rect fill="#2563EB" height="0.7315735682752891" width="1" x="67" y="0.2684264317247109"></rect><rect fill="#2563EB" height="0.8194534430330603" width="1" x="68" y="0.18054655696693966"></rect><rect fill="#2563EB" height="0.830149398232306" width="1" x="69" y="0.16985060176769395"></rect><rect fill="#2563EB" height="0.8207228655830526" width="1" x="70" y="0.17927713441694737"></rect><rect fill="#2563EB" height="0.8970038583413896" width="1" x="71" y="0.10299614165861037"></rect><rect fill="#2563EB" height="0.9626510554651216" width="1" x="72" y="0.03734894453487836"></rect><rect fill="#2563EB" height="0.9606361104487502" width="1" x="73" y="0.03936388955124981"></rect><rect fill="#2563EB" height="0.8848068523503535" width="1" x="74" y="0.1151931476496465"></rect><rect fill="#2563EB" height="0.842607537914102" width="1" x="75" y="0.15739246208589797"></rect><rect fill="#2563EB" height="0.7086639582111104" width="1" x="76" y="0.2913360417888896"></rect><rect fill="#2563EB" height="0.8195296043893743" width="1" x="77" y="0.18047039561062572"></rect><rect fill="#2563EB" height="0.8385892644402217" width="1" x="78" y="0.16141073555977825"></rect><rect fill="#2563EB" height="0.8070883221260055" width="1" x="79" y="0.19291167787399455"></rect><rect fill="#2563EB" height="0.7843214515115671" width="1" x="80" y="0.21567854848843293"></rect><rect fill="#2563EB" height="0.9552331287449083" width="1" x="81" y="0.04476687125509171"></rect><rect fill="#2563EB" height="1" width="1" x="82" y="0"></rect><rect fill="#2563EB" height="0.9268317880841412" width="1" x="83" y="0.07316821191585876"></rect><rect fill="#2563EB" height="0.8902866808830047" width="1" x="84" y="0.10971331911699533"></rect><rect fill="#2563EB" height="0.8758458069317339" width="1" x="85" y="0.12415419306826614"></rect><rect fill="#2563EB" height="0.923931637301464" width="1" x="86" y="0.07606836269853601"></rect><rect fill="#2563EB" height="0.8503250498619802" width="1" x="87" y="0.1496749501380198"></rect><rect fill="#2563EB" height="0.9030268524685526" width="1" x="88" y="0.09697314753144737"></rect><rect fill="#2563EB" height="0.849913196958317" width="1" x="89" y="0.15008680304168298"></rect><rect fill="#2563EB" height="0.9039919598635703" width="1" x="90" y="0.09600804013642972"></rect><rect fill="#2563EB" height="0.9511319504779495" width="1" x="91" y="0.04886804952205048"></rect><rect fill="#2563EB" height="0.5957608517414589" width="1" x="92" y="0.4042391482585411"></rect><rect fill="#2563EB" height="0.11426706380734053" width="1" x="93" y="0.8857329361926595"></rect><rect fill="#2563EB" height="0.040410303927948615" width="1" x="94" y="0.9595896960720514"></rect><rect fill="#2563EB" height="0.016969485428687668" width="1" x="95" y="0.9830305145713123"></rect><rect fill="#2563EB" height="0.007531560324129505" width="1" x="96" y="0.9924684396758705"></rect><rect fill="#2563EB" height="0.0032185496985060176" width="1" x="97" y="0.996781450301494"></rect><rect fill="#2563EB" height="0.0011842276906468387" width="1" x="98" y="0.9988157723093531"></rect><rect fill="#2563EB" height="0.000279980427412548" width="1" x="99" y="0.9997200195725875"></rect></svg>