<svg xmlns="http://www.w3.org/2000/svg" preserveAspectRatio="none" viewBox="0 0 100 1"><rect fill="#2563EB" height="0.8949417585335654" width="1" x="0" y="0.10505824146643461"></rect><rect fill="#2563EB" height="0.5274621401580853" width="1" x="1" y="0.47253785984191465"></rect><rect fill="#2563EB" height="0.5544762228632965" width="1" x="2" y="0.44552377713670355"></rect><rect fill="#2563EB" height="0.4294578712464702" width="1" x="3" y="0.5705421287535297"></rect><rect fill="#2563EB" height="0.4154023764469519" width="1" x="4" y="0.5845976235530481"></rect><rect fill="#2563EB" height="0.47328722519020405" width="1" x="5" y="0.526712774809796"></rect><rect fill="#2563EB" height="0.9502226542311789" width="1" x="6" y="0.04977734576882109"></rect><rect fill="#2563EB" height="0.8872910738281232" width="1" x="7" y="0.11270892617187678"></rect><rect fill="#2563EB" height="0.6494373799751411" width="1" x="8" y="0.35056262002485894"></rect><rect fill="#2563EB" height="0.5404515274378824" width="1" x="9" y="0.4595484725621176"></rect><rect fill="#2563EB" height="0.4210135210248983" width="1" x="10" y="0.5789864789751017"></rect><rect fill="#2563EB" height="0.3672650742600917" width="1" x="11" y="0.6327349257399083"></rect><rect fill="#2563EB" height="0.7884127649397161" width="1" x="12" y="0.21158723506028387"></rect><rect fill="#2563EB" height="0.8179639384208437" width="1" x="13" y="0.1820360615791563"></rect><rect fill="#2563EB" height="0.7114498926162439" width="1" x="14" y="0.2885501073837561"></rect><rect fill="#2563EB" height="0.7517876647407546" width="1" x="15" y="0.24821233525924535"></rect><rect fill="#2563EB" height="0.5506444771743373" width="1" x="16" y="0.4493555228256627"></rect><rect fill="#2563EB" height="0.5653727209339132" width="1" x="17" y="0.4346272790660868"></rect><rect fill="#2563EB" height="0.5881314901957325" width="1" x="18" y="0.4118685098042675"></rect><rect fill="#2563EB" height="0.6732938206113334" width="1" x="19" y="0.32670617938866664"></rect><rect fill="#2563EB" height="0.39538828042104" width="1" x="20" y="0.60461171957896"></rect><rect fill="#2563EB" height="0.4173729627145209" width="1" x="21" y="0.5826270372854792"></rect><rect fill="#2563EB" height="0.2926673690532432" width="1" x="22" y="0.7073326309467568"></rect><rect fill="#2563EB" height="0.3799420878527874" width="1" x="23" y="0.6200579121472126"></rect><rect fill="#2563EB" height="0.4852545673355393" width="1" x="24" y="0.5147454326644607"></rect><rect fill="#2563EB" height="0.9716175569487673" width="1" x="25" y="0.02838244305123272"></rect><rect fill="#2563EB" height="0.9355546057594575" width="1" x="26" y="0.06444539424054252"></rect><rect fill="#2563EB" height="0.6750850255671972" width="1" x="27" y="0.3249149744328028"></rect><rect fill="#2563EB" height="0.7281713234331352" width="1" x="28" y="0.2718286765668648"></rect><rect fill="#2563EB" height="0.8078082385542539" width="1" x="29" y="0.19219176144574612"></rect><rect fill="#2563EB" height="1" width="1" x="30" y="0"></rect><rect fill="#2563EB" height="0.7684995469120791" width="1" x="31" y="0.2315004530879209"></rect><rect fill="#2563EB" height="0.6705563958113674" width="1" x="32" y="0.3294436041886326"></rect><rect fill="#2563EB" height="0.4416002377339973" width="1" x="33" y="0.5583997622660026"></rect><rect fill="#2563EB" height="0.29311108368130007" width="1" x="34" y="0.7068889163187"></rect><rect fill="#2563EB" height="0.3738705864537847" width="1" x="35" y="0.6261294135462153"></rect><rect fill="#2563EB" height="0.5000162028735141" width="1" x="36" y="0.4999837971264859"></rect><rect fill="#2563EB" height="0.8260872387064003" width="1" x="37" y="0.17391276129359967"></rect><rect fill="#2563EB" height="0.5101119136604376" width="1" x="38" y="0.4898880863395624"></rect><rect fill="#2563EB" height="0.5000891222447502" width="1" x="39" y="0.4999108777552498"></rect><rect fill="#2563EB" height="0.9361031022403669" width="1" x="40" y="0.06389689775963314"></rect><rect fill="#2563EB" height="0.6291989193553806" width="1" x="41" y="0.37080108064461936"></rect><rect fill="#2563EB" height="0.6107175846311931" width="1" x="42" y="0.3892824153688069"></rect><rect fill="#2563EB" height="0.810003968648011" width="1" x="43" y="0.18999603135198895"></rect><rect fill="#2563EB" height="0.7009983206271471" width="1" x="44" y="0.29900167937285294"></rect><rect fill="#2563EB" height="0.6009467593016251" width="1" x="45" y="0.3990532406983749"></rect><rect fill="#2563EB" height="0.8565261712137506" width="1" x="46" y="0.14347382878624937"></rect><rect fill="#2563EB" height="0.5013338628456824" width="1" x="47" y="0.4986661371543176"></rect><rect fill="#2563EB" height="0.746521087718816" width="1" x="48" y="0.253478912281184"></rect><rect fill="#2563EB" height="0.4950273160351893" width="1" x="49" y="0.5049726839648108"></rect><rect fill="#2563EB" height="0.9996613279586016" width="1" x="50" y="0.00033867204139836904"></rect><rect fill="#2563EB" height="0.6040416207367536" width="1" x="51" y="0.3959583792632464"></rect><rect fill="#2563EB" height="0.7688835719296753" width="1" x="52" y="0.23111642807032473"></rect><rect fill="#2563EB" height="0.4747110549192803" width="1" x="53" y="0.5252889450807197"></rect><rect fill="#2563EB" height="0.44431462087852736" width="1" x="54" y="0.5556853791214726"></rect><rect fill="#2563EB" height="0.3927530530426598" width="1" x="55" y="0.6072469469573403"></rect><rect fill="#2563EB" height="0.8185997476111633" width="1" x="56" y="0.18140025238883672"></rect><rect fill="#2563EB" height="0.9381681528225478" width="1" x="57" y="0.06183184717745216"></rect><rect fill="#2563EB" height="0.7291848361205192" width="1" x="58" y="0.2708151638794808"></rect><rect fill="#2563EB" height="0.8851035618531241" width="1" x="59" y="0.11489643814687589"></rect><rect fill="#2563EB" height="0.5794974030946571" width="1" x="60" y="0.42050259690534286"></rect><rect fill="#2563EB" height="0.5262035991468685" width="1" x="61" y="0.47379640085313146"></rect><rect fill="#2563EB" height="0.7006923649190386" width="1" x="62" y="0.29930763508096137"></rect><rect fill="#2563EB" height="0.5844699785999735" width="1" x="63" y="0.4155300214000265"></rect><rect fill="#2563EB" height="0.7655078635667477" width="1" x="64" y="0.23449213643325229"></rect><rect fill="#2563EB" height="0.5564225734746137" width="1" x="65" y="0.44357742652538634"></rect><rect fill="#2563EB" height="0.6664438330557702" width="1" x="66" y="0.33355616694422985"></rect><rect fill="#2563EB" height="0.5365188209439697" width="1" x="67" y="0.46348117905603026"></rect><rect fill="#2563EB" height="0.6610647084742544" width="1" x="68" y="0.33893529152574564"></rect><rect fill="#2563EB" height="0.7890558104245433" width="1" x="69" y="0.2109441895754567"></rect><rect fill="#2563EB" height="0.6313434759468387" width="1" x="70" y="0.3686565240531613"></rect><rect fill="#2563EB" height="0.927389910862707" width="1" x="71" y="0.07261008913729305"></rect><rect fill="#2563EB" height="0.34002988580028876" width="1" x="72" y="0.6599701141997112"></rect><rect fill="#2563EB" height="0.4653378635218293" width="1" x="73" y="0.5346621364781707"></rect><rect fill="#2563EB" height="0.4506209058442602" width="1" x="74" y="0.5493790941557398"></rect><rect fill="#2563EB" height="0.9013655664735936" width="1" x="75" y="0.09863443352640644"></rect><rect fill="#2563EB" height="0.5902171379517618" width="1" x="76" y="0.4097828620482382"></rect><rect fill="#2563EB" height="0.7754750926190013" width="1" x="77" y="0.22452490738099873"></rect><rect fill="#2563EB" height="0.46107468287826564" width="1" x="78" y="0.5389253171217343"></rect><rect fill="#2563EB" height="0.4544867651155822" width="1" x="79" y="0.5455132348844178"></rect><rect fill="#2563EB" height="0.3870255073004484" width="1" x="80" y="0.6129744926995516"></rect><rect fill="#2563EB" height="0.8670614820880077" width="1" x="81" y="0.1329385179119923"></rect><rect fill="#2563EB" height="0.9272421330229881" width="1" x="82" y="0.07275786697701192"></rect><rect fill="#2563EB" height="0.7468730642626735" width="1" x="83" y="0.2531269357373265"></rect><rect fill="#2563EB" height="0.877534667499591" width="1" x="84" y="0.12246533250040903"></rect><rect fill="#2563EB" height="0.5760935964506783" width="1" x="85" y="0.42390640354932174"></rect><rect fill="#2563EB" height="0.5514991514212217" width="1" x="86" y="0.44850084857877826"></rect><rect fill="#2563EB" height="0.8091312129852093" width="1" x="87" y="0.1908687870147907"></rect><rect fill="#2563EB" height="0.5808080402552058" width="1" x="88" y="0.4191919597447942"></rect><rect fill="#2563EB" height="0.7174955124540054" width="1" x="89" y="0.28250448754599455"></rect><rect fill="#2563EB" height="0.5839703698552854" width="1" x="90" y="0.4160296301447146"></rect><rect fill="#2563EB" height="0.6637339331423859" width="1" x="91" y="0.33626606685761407"></rect><rect fill="#2563EB" height="0.5133152464010926" width="1" x="92" y="0.4866847535989074"></rect><rect fill="#2563EB" height="0.4249702107238358" width="1" x="93" y="0.5750297892761642"></rect><rect fill="#2563EB" height="0.5663790458531569" width="1" x="94" y="0.4336209541468431"></rect><rect fill="#2563EB" height="0.5807110150626664" width="1" x="95" y="0.4192889849373336"></rect><rect fill="#2563EB" height="0.9051282826033747" width="1" x="96" y="0.09487171739662525"></rect><rect fill="#2563EB" height="0.2979746087252099" width="1" x="97" y="0.70202539127479"></rect><rect fill="#2563EB" height="0.19936069826019823" width="1" x="98" y="0.8006393017398018"></rect><rect fill="#2563EB" height="0.018806891848435845" width="1" x="99" y="0.9811931081515641"></rect></svg>