<svg xmlns="http://www.w3.org/2000/svg" preserveAspectRatio="none" viewBox="0 0 100 1"><rect fill="#2563EB" height="0.8911025965040424" width="1" x="0" y="0.10889740349595756"></rect><rect fill="#2563EB" height="0.9607611810819976" width="1" x="1" y="0.039238818918002405"></rect><rect fill="#2563EB" height="0.8023143049150195" width="1" x="2" y="0.19768569508498046"></rect><rect fill="#2563EB" height="0.8038318949790634" width="1" x="3" y="0.19616810502093662"></rect><rect fill="#2563EB" height="0.7496774475436836" width="1" x="4" y="0.2503225524563164"></rect><rect fill="#2563EB" height="0.725966436067898" width="1" x="5" y="0.274033563932102"></rect><rect fill="#2563EB" height="0.8447755200510547" width="1" x="6" y="0.15522447994894528"></rect><rect fill="#2563EB" height="0.8153016816448471" width="1" x="7" y="0.18469831835515294"></rect><rect fill="#2563EB" height="0.6733458386516843" width="1" x="8" y="0.3266541613483157"></rect><rect fill="#2563EB" height="0.7971875692077792" width="1" x="9" y="0.20281243079222078"></rect><rect fill="#2563EB" height="0.6968861090496126" width="1" x="10" y="0.30311389095038743"></rect><rect fill="#2563EB" height="0.8304316469585445" width="1" x="11" y="0.16956835304145546"></rect><rect fill="#2563EB" height="0.9066685375674488" width="1" x="12" y="0.0933314624325512"></rect><rect fill="#2563EB" height="0.9113205066672402" width="1" x="13" y="0.08867949333275982"></rect><rect fill="#2563EB" height="0.9781053003388239" width="1" x="14" y="0.021894699661176076"></rect><rect fill="#2563EB" height="0.7308285528714377" width="1" x="15" y="0.26917144712856234"></rect><rect fill="#2563EB" height="0.8149494902989052" width="1" x="16" y="0.18505050970109482"></rect><rect fill="#2563EB" height="0.9160284808926086" width="1" x="17" y="0.08397151910739142"></rect><rect fill="#2563EB" height="0.8007601385333585" width="1" x="18" y="0.19923986146664152"></rect><rect fill="#2563EB" height="0.7851189140340469" width="1" x="19" y="0.21488108596595312"></rect><rect fill="#2563EB" height="0.824831612585241" width="1" x="20" y="0.17516838741475904"></rect><rect fill="#2563EB" height="0.745927841388628" width="1" x="21" y="0.254072158611372"></rect><rect fill="#2563EB" height="0.8156536977868566" width="1" x="22" y="0.1843463022131434"></rect><rect fill="#2563EB" height="0.831094709047735" width="1" x="23" y="0.16890529095226503"></rect><rect fill="#2563EB" height="0.7368458596731532" width="1" x="24" y="0.2631541403268468"></rect><rect fill="#2563EB" height="0.800409330965639" width="1" x="25" y="0.19959066903436096"></rect><rect fill="#2563EB" height="0.7778725822859702" width="1" x="26" y="0.22212741771402977"></rect><rect fill="#2563EB" height="0.7641872103036478" width="1" x="27" y="0.23581278969635222"></rect><rect fill="#2563EB" height="0.619817410352316" width="1" x="28" y="0.38018258964768403"></rect><rect fill="#2563EB" height="0.6925111312879548" width="1" x="29" y="0.30748886871204517"></rect><rect fill="#2563EB" height="0.937069457302417" width="1" x="30" y="0.06293054269758303"></rect><rect fill="#2563EB" height="0.8543979402076549" width="1" x="31" y="0.14560205979234508"></rect><rect fill="#2563EB" height="0.797199067639064" width="1" x="32" y="0.202800932360936"></rect><rect fill="#2563EB" height="0.5238797461797683" width="1" x="33" y="0.4761202538202317"></rect><rect fill="#2563EB" height="0.6210301427824896" width="1" x="34" y="0.3789698572175104"></rect><rect fill="#2563EB" height="0.7820343388236525" width="1" x="35" y="0.21796566117634752"></rect><rect fill="#2563EB" height="0.8286072627337885" width="1" x="36" y="0.17139273726621151"></rect><rect fill="#2563EB" height="0.9371749939476145" width="1" x="37" y="0.0628250060523855"></rect><rect fill="#2563EB" height="0.86345212860566" width="1" x="38" y="0.13654787139434"></rect><rect fill="#2563EB" height="0.7269437296978631" width="1" x="39" y="0.27305627030213686"></rect><rect fill="#2563EB" height="0.7330250671827533" width="1" x="40" y="0.2669749328172467"></rect><rect fill="#2563EB" height="0.9092042069799506" width="1" x="41" y="0.09079579302004936"></rect><rect fill="#2563EB" height="0.8079404873783036" width="1" x="42" y="0.1920595126216964"></rect><rect fill="#2563EB" height="0.8924641891222855" width="1" x="43" y="0.10753581087771447"></rect><rect fill="#2563EB" height="0.8242775350743178" width="1" x="44" y="0.17572246492568222"></rect><rect fill="#2563EB" height="0.6912699026508967" width="1" x="45" y="0.3087300973491033"></rect><rect fill="#2563EB" height="0.7819022136417956" width="1" x="46" y="0.21809778635820443"></rect><rect fill="#2563EB" height="0.8849857175715493" width="1" x="47" y="0.11501428242845069"></rect><rect fill="#2563EB" height="0.7929056367158732" width="1" x="48" y="0.20709436328412678"></rect><rect fill="#2563EB" height="0.9095897363642502" width="1" x="49" y="0.09041026363574978"></rect><rect fill="#2563EB" height="0.8250841012832069" width="1" x="50" y="0.17491589871679314"></rect><rect fill="#2563EB" height="0.7281399660948372" width="1" x="51" y="0.2718600339051628"></rect><rect fill="#2563EB" height="0.7289364476698694" width="1" x="52" y="0.2710635523301306"></rect><rect fill="#2563EB" height="0.8596070551110647" width="1" x="53" y="0.14039294488893528"></rect><rect fill="#2563EB" height="0.765282117681368" width="1" x="54" y="0.234717882318632"></rect><rect fill="#2563EB" height="0.8058848439952936" width="1" x="55" y="0.1941151560047064"></rect><rect fill="#2563EB" height="0.752876311289637" width="1" x="56" y="0.24712368871036305"></rect><rect fill="#2563EB" height="0.63358881199738" width="1" x="57" y="0.36641118800261996"></rect><rect fill="#2563EB" height="0.6387441865194102" width="1" x="58" y="0.36125581348058977"></rect><rect fill="#2563EB" height="0.8359559480998229" width="1" x="59" y="0.16404405190017712"></rect><rect fill="#2563EB" height="0.6412845763284326" width="1" x="60" y="0.3587154236715674"></rect><rect fill="#2563EB" height="0.7329025203307254" width="1" x="61" y="0.26709747966927455"></rect><rect fill="#2563EB" height="0.89741786521603" width="1" x="62" y="0.10258213478397005"></rect><rect fill="#2563EB" height="0.6028921761136935" width="1" x="63" y="0.3971078238863065"></rect><rect fill="#2563EB" height="0.8003601564140886" width="1" x="64" y="0.19963984358591136"></rect><rect fill="#2563EB" height="0.8542910963119081" width="1" x="65" y="0.14570890368809186"></rect><rect fill="#2563EB" height="0.7232970409302943" width="1" x="66" y="0.27670295906970566"></rect><rect fill="#2563EB" height="0.5811444992900423" width="1" x="67" y="0.4188555007099577"></rect><rect fill="#2563EB" height="0.653589122657377" width="1" x="68" y="0.346410877342623"></rect><rect fill="#2563EB" height="0.6259973109861692" width="1" x="69" y="0.3740026890138308"></rect><rect fill="#2563EB" height="0.6457342795410023" width="1" x="70" y="0.35426572045899773"></rect><rect fill="#2563EB" height="0.8220422676133147" width="1" x="71" y="0.17795773238668533"></rect><rect fill="#2563EB" height="0.747427745822033" width="1" x="72" y="0.252572254177967"></rect><rect fill="#2563EB" height="0.8859289173022818" width="1" x="73" y="0.11407108269771815"></rect><rect fill="#2563EB" height="0.8722936369078617" width="1" x="74" y="0.12770636309213834"></rect><rect fill="#2563EB" height="0.766284274051974" width="1" x="75" y="0.23371572594802603"></rect><rect fill="#2563EB" height="0.6559822105801998" width="1" x="76" y="0.3440177894198002"></rect><rect fill="#2563EB" height="0.7457574648950704" width="1" x="77" y="0.25424253510492956"></rect><rect fill="#2563EB" height="1" width="1" x="78" y="0"></rect><rect fill="#2563EB" height="0.951783852013147" width="1" x="79" y="0.04821614798685303"></rect><rect fill="#2563EB" height="0.8451526060376768" width="1" x="80" y="0.15484739396232317"></rect><rect fill="#2563EB" height="0.7011509025671144" width="1" x="81" y="0.29884909743288557"></rect><rect fill="#2563EB" height="0.7741545203013558" width="1" x="82" y="0.2258454796986442"></rect><rect fill="#2563EB" height="0.745348709723971" width="1" x="83" y="0.25465129027602895"></rect><rect fill="#2563EB" height="0.6438258778822455" width="1" x="84" y="0.35617412211775445"></rect><rect fill="#2563EB" height="0.6661161731630745" width="1" x="85" y="0.3338838268369255"></rect><rect fill="#2563EB" height="0.7643637482284907" width="1" x="86" y="0.23563625177150926"></rect><rect fill="#2563EB" height="0.7184724991695115" width="1" x="87" y="0.2815275008304885"></rect><rect fill="#2563EB" height="0.690179341901873" width="1" x="88" y="0.309820658098127"></rect><rect fill="#2563EB" height="0.7882569185699847" width="1" x="89" y="0.2117430814300153"></rect><rect fill="#2563EB" height="0.7741710333868186" width="1" x="90" y="0.22582896661318141"></rect><rect fill="#2563EB" height="0.7484159293201519" width="1" x="91" y="0.2515840706798481"></rect><rect fill="#2563EB" height="0.6014502558137859" width="1" x="92" y="0.39854974418621414"></rect><rect fill="#2563EB" height="0.6243916396021847" width="1" x="93" y="0.3756083603978153"></rect><rect fill="#2563EB" height="0.6798183529946022" width="1" x="94" y="0.32018164700539775"></rect><rect fill="#2563EB" height="0.9714870416431234" width="1" x="95" y="0.028512958356876617"></rect><rect fill="#2563EB" height="0.44391700577906223" width="1" x="96" y="0.5560829942209378"></rect><rect fill="#2563EB" height="0.003985269314868466" width="1" x="97" y="0.9960147306851316"></rect><rect fill="#2563EB" height="0.0000012588855374110643" width="1" x="98" y="0.9999987411144626"></rect><rect fill="#2563EB" height="0" width="1" x="99" y="1"></rect></svg>