<svg xmlns="http://www.w3.org/2000/svg" preserveAspectRatio="none" viewBox="0 0 100 1"><rect fill="#2563EB" height="0.14393241174236837" width="1" x="0" y="0.8560675882576316"></rect><rect fill="#2563EB" height="0.13044498775712982" width="1" x="1" y="0.8695550122428701"></rect><rect fill="#2563EB" height="0.17974898759849742" width="1" x="2" y="0.8202510124015026"></rect><rect fill="#2563EB" height="0.21652216037119043" width="1" x="3" y="0.7834778396288096"></rect><rect fill="#2563EB" height="0.40730049408350416" width="1" x="4" y="0.5926995059164959"></rect><rect fill="#2563EB" height="0.4107248374646558" width="1" x="5" y="0.5892751625353442"></rect><rect fill="#2563EB" height="0.4246466207640401" width="1" x="6" y="0.57535337923596"></rect><rect fill="#2563EB" height="0.43851581559187974" width="1" x="7" y="0.5614841844081202"></rect><rect fill="#2563EB" height="0.380720229969218" width="1" x="8" y="0.6192797700307819"></rect><rect fill="#2563EB" height="0.7062797189804496" width="1" x="9" y="0.2937202810195504"></rect><rect fill="#2563EB" height="0.7071817883354604" width="1" x="10" y="0.2928182116645396"></rect><rect fill="#2563EB" height="0.558109116984355" width="1" x="11" y="0.44189088301564505"></rect><rect fill="#2563EB" height="0.6892325674268015" width="1" x="12" y="0.3107674325731985"></rect><rect fill="#2563EB" height="0.8700109702996721" width="1" x="13" y="0.12998902970032788"></rect><rect fill="#2563EB" height="0.679865225373143" width="1" x="14" y="0.320134774626857"></rect><rect fill="#2563EB" height="0.6956796886414433" width="1" x="15" y="0.30432031135855675"></rect><rect fill="#2563EB" height="0.793390575053449" width="1" x="16" y="0.206609424946551"></rect><rect fill="#2563EB" height="0.633337472726135" width="1" x="17" y="0.36666252727386495"></rect><rect fill="#2563EB" height="0.7105397275434715" width="1" x="18" y="0.2894602724565285"></rect><rect fill="#2563EB" height="0.6638171646978571" width="1" x="19" y="0.3361828353021429"></rect><rect fill="#2563EB" height="0.7341892133666902" width="1" x="20" y="0.2658107866333098"></rect><rect fill="#2563EB" height="0.7742031176173569" width="1" x="21" y="0.22579688238264306"></rect><rect fill="#2563EB" height="0.8661002523094801" width="1" x="22" y="0.13389974769051993"></rect><rect fill="#2563EB" height="0.7849145674277362" width="1" x="23" y="0.21508543257226376"></rect><rect fill="#2563EB" height="0.7884331611136082" width="1" x="24" y="0.21156683888639183"></rect><rect fill="#2563EB" height="0.8197574212861714" width="1" x="25" y="0.18024257871382865"></rect><rect fill="#2563EB" height="0.7742859401181008" width="1" x="26" y="0.2257140598818992"></rect><rect fill="#2563EB" height="0.8060860465171569" width="1" x="27" y="0.19391395348284313"></rect><rect fill="#2563EB" height="0.7843786474930982" width="1" x="28" y="0.21562135250690184"></rect><rect fill="#2563EB" height="0.724151317166736" width="1" x="29" y="0.275848682833264"></rect><rect fill="#2563EB" height="0.6812903928743098" width="1" x="30" y="0.3187096071256902"></rect><rect fill="#2563EB" height="0.6995049078725767" width="1" x="31" y="0.3004950921274233"></rect><rect fill="#2563EB" height="0.7003932640650786" width="1" x="32" y="0.2996067359349214"></rect><rect fill="#2563EB" height="0.699713349662499" width="1" x="33" y="0.300286650337501"></rect><rect fill="#2563EB" height="0.5552659722176738" width="1" x="34" y="0.4447340277823262"></rect><rect fill="#2563EB" height="0.7906737772897005" width="1" x="35" y="0.20932622271029955"></rect><rect fill="#2563EB" height="0.6157872200677238" width="1" x="36" y="0.3842127799322762"></rect><rect fill="#2563EB" height="0.6831691678537731" width="1" x="37" y="0.31683083214622687"></rect><rect fill="#2563EB" height="0.6841216395639427" width="1" x="38" y="0.3158783604360573"></rect><rect fill="#2563EB" height="0.9168037723941478" width="1" x="39" y="0.08319622760585221"></rect><rect fill="#2563EB" height="0.7447225968709817" width="1" x="40" y="0.25527740312901825"></rect><rect fill="#2563EB" height="0.6555019931343905" width="1" x="41" y="0.3444980068656095"></rect><rect fill="#2563EB" height="0.826310156405397" width="1" x="42" y="0.17368984359460304"></rect><rect fill="#2563EB" height="0.5327599673811997" width="1" x="43" y="0.4672400326188003"></rect><rect fill="#2563EB" height="1" width="1" x="44" y="0"></rect><rect fill="#2563EB" height="0.7108369297319522" width="1" x="45" y="0.2891630702680478"></rect><rect fill="#2563EB" height="0.6973416536260428" width="1" x="46" y="0.30265834637395717"></rect><rect fill="#2563EB" height="0.7268336262006545" width="1" x="47" y="0.2731663737993455"></rect><rect fill="#2563EB" height="0.9241798390530971" width="1" x="48" y="0.07582016094690291"></rect><rect fill="#2563EB" height="0.6781184540720259" width="1" x="49" y="0.32188154592797413"></rect><rect fill="#2563EB" height="0.7176705531722434" width="1" x="50" y="0.2823294468277566"></rect><rect fill="#2563EB" height="0.6856094426234007" width="1" x="51" y="0.31439055737659927"></rect><rect fill="#2563EB" height="0.6100135271559499" width="1" x="52" y="0.3899864728440501"></rect><rect fill="#2563EB" height="0.8266166260314728" width="1" x="53" y="0.1733833739685272"></rect><rect fill="#2563EB" height="0.7286390681165915" width="1" x="54" y="0.2713609318834085"></rect><rect fill="#2563EB" height="0.7689061544755639" width="1" x="55" y="0.23109384552443613"></rect><rect fill="#2563EB" height="0.7037731162925615" width="1" x="56" y="0.29622688370743855"></rect><rect fill="#2563EB" height="0.7826799348377924" width="1" x="57" y="0.2173200651622076"></rect><rect fill="#2563EB" height="0.7096364301373708" width="1" x="58" y="0.29036356986262923"></rect><rect fill="#2563EB" height="0.6942982604691925" width="1" x="59" y="0.3057017395308075"></rect><rect fill="#2563EB" height="0.6661069113225542" width="1" x="60" y="0.3338930886774458"></rect><rect fill="#2563EB" height="0.7177190410008089" width="1" x="61" y="0.28228095899919114"></rect><rect fill="#2563EB" height="0.8035107766114101" width="1" x="62" y="0.19648922338858987"></rect><rect fill="#2563EB" height="0.715169914542562" width="1" x="63" y="0.28483008545743804"></rect><rect fill="#2563EB" height="0.7216109316150451" width="1" x="64" y="0.2783890683849549"></rect><rect fill="#2563EB" height="0.7238118365496767" width="1" x="65" y="0.27618816345032327"></rect><rect fill="#2563EB" height="0.7452526293252637" width="1" x="66" y="0.2547473706747363"></rect><rect fill="#2563EB" height="0.6458449906037838" width="1" x="67" y="0.35415500939621625"></rect><rect fill="#2563EB" height="0.770575486851591" width="1" x="68" y="0.22942451314840895"></rect><rect fill="#2563EB" height="0.6320939773772366" width="1" x="69" y="0.3679060226227634"></rect><rect fill="#2563EB" height="0.5375912014547005" width="1" x="70" y="0.4624087985452995"></rect><rect fill="#2563EB" height="0.48345919201215415" width="1" x="71" y="0.5165408079878459"></rect><rect fill="#2563EB" height="0.35514064296741055" width="1" x="72" y="0.6448593570325895"></rect><rect fill="#2563EB" height="0.2566746625274038" width="1" x="73" y="0.7433253374725962"></rect><rect fill="#2563EB" height="0.281309271779312" width="1" x="74" y="0.718690728220688"></rect><rect fill="#2563EB" height="0.1741009434567087" width="1" x="75" y="0.8258990565432913"></rect><rect fill="#2563EB" height="0.3177180911360387" width="1" x="76" y="0.6822819088639613"></rect><rect fill="#2563EB" height="0.26512224790120925" width="1" x="77" y="0.7348777520987908"></rect><rect fill="#2563EB" height="0.15070155147492692" width="1" x="78" y="0.8492984485250731"></rect><rect fill="#2563EB" height="0.23929323393245874" width="1" x="79" y="0.7607067660675413"></rect><rect fill="#2563EB" height="0.388908937337814" width="1" x="80" y="0.6110910626621859"></rect><rect fill="#2563EB" height="0.21425096308453778" width="1" x="81" y="0.7857490369154623"></rect><rect fill="#2563EB" height="0.1390918546890238" width="1" x="82" y="0.8609081453109761"></rect><rect fill="#2563EB" height="0.25074908326989986" width="1" x="83" y="0.7492509167301001"></rect><rect fill="#2563EB" height="0.5379632184857582" width="1" x="84" y="0.46203678151424177"></rect><rect fill="#2563EB" height="0.2868030776404628" width="1" x="85" y="0.7131969223595371"></rect><rect fill="#2563EB" height="0.130042894934012" width="1" x="86" y="0.869957105065988"></rect><rect fill="#2563EB" height="0.18002923096718687" width="1" x="87" y="0.8199707690328131"></rect><rect fill="#2563EB" height="0.5089528646079503" width="1" x="88" y="0.4910471353920497"></rect><rect fill="#2563EB" height="0.38317937927541496" width="1" x="89" y="0.616820620724585"></rect><rect fill="#2563EB" height="0.20977211342563576" width="1" x="90" y="0.7902278865743643"></rect><rect fill="#2563EB" height="0.21046388991175083" width="1" x="91" y="0.7895361100882492"></rect><rect fill="#2563EB" height="0.18465787291094649" width="1" x="92" y="0.8153421270890535"></rect><rect fill="#2563EB" height="0.16240704846635803" width="1" x="93" y="0.837592951533642"></rect><rect fill="#2563EB" height="0.006841339487057687" width="1" x="94" y="0.9931586605129423"></rect><rect fill="#2563EB" height="0.000010848965280742728" width="1" x="95" y="0.9999891510347193"></rect><rect fill="#2563EB" height="0" width="1" x="96" y="1"></rect><rect fill="#2563EB" height="0" width="1" x="97" y="1"></rect><rect fill="#2563EB" height="0" width="1" x="98" y="1"></rect><rect fill="#2563EB" height="0" width="1" x="99" y="1"></rect></svg>