<svg xmlns="http://www.w3.org/2000/svg" preserveAspectRatio="none" viewBox="0 0 100 1"><rect fill="#2563EB" height="0.8327832634294704" width="1" x="0" y="0.1672167365705296"></rect><rect fill="#2563EB" height="0.8577950815114473" width="1" x="1" y="0.14220491848855266"></rect><rect fill="#2563EB" height="0.8114264358144033" width="1" x="2" y="0.18857356418559668"></rect><rect fill="#2563EB" height="0.8487576003301849" width="1" x="3" y="0.15124239966981512"></rect><rect fill="#2563EB" height="0.778964798486454" width="1" x="4" y="0.22103520151354605"></rect><rect fill="#2563EB" height="0.9610818276923363" width="1" x="5" y="0.0389181723076637"></rect><rect fill="#2563EB" height="0.7266282139658876" width="1" x="6" y="0.2733717860341124"></rect><rect fill="#2563EB" height="0.770451158958038" width="1" x="7" y="0.22954884104196205"></rect><rect fill="#2563EB" height="0.848074345812256" width="1" x="8" y="0.15192565418774395"></rect><rect fill="#2563EB" height="0.9154200345695992" width="1" x="9" y="0.0845799654304008"></rect><rect fill="#2563EB" height="0.8743930331824854" width="1" x="10" y="0.1256069668175146"></rect><rect fill="#2563EB" height="0.7572403375388594" width="1" x="11" y="0.24275966246114056"></rect><rect fill="#2563EB" height="0.8636306892754739" width="1" x="12" y="0.13636931072452607"></rect><rect fill="#2563EB" height="0.8691021594310204" width="1" x="13" y="0.13089784056897957"></rect><rect fill="#2563EB" height="0.7391710292896608" width="1" x="14" y="0.26082897071033917"></rect><rect fill="#2563EB" height="0.7297434604864843" width="1" x="15" y="0.2702565395135157"></rect><rect fill="#2563EB" height="0.7907236719445123" width="1" x="16" y="0.20927632805548768"></rect><rect fill="#2563EB" height="0.7779523232917626" width="1" x="17" y="0.22204767670823744"></rect><rect fill="#2563EB" height="0.7768470913508769" width="1" x="18" y="0.22315290864912307"></rect><rect fill="#2563EB" height="0.8252431249523635" width="1" x="19" y="0.17475687504763648"></rect><rect fill="#2563EB" height="0.9066164035922886" width="1" x="20" y="0.09338359640771143"></rect><rect fill="#2563EB" height="0.8710347518004087" width="1" x="21" y="0.12896524819959132"></rect><rect fill="#2563EB" height="0.8583661161455269" width="1" x="22" y="0.14163388385447306"></rect><rect fill="#2563EB" height="0.8064018475641143" width="1" x="23" y="0.19359815243588574"></rect><rect fill="#2563EB" height="0.7499711980953683" width="1" x="24" y="0.2500288019046317"></rect><rect fill="#2563EB" height="0.7183442968261671" width="1" x="25" y="0.2816557031738329"></rect><rect fill="#2563EB" height="0.7530680283319231" width="1" x="26" y="0.2469319716680769"></rect><rect fill="#2563EB" height="0.7339660358639402" width="1" x="27" y="0.26603396413605984"></rect><rect fill="#2563EB" height="0.8324399518106143" width="1" x="28" y="0.16756004818938575"></rect><rect fill="#2563EB" height="0.9301006755943518" width="1" x="29" y="0.06989932440564817"></rect><rect fill="#2563EB" height="0.820454823448221" width="1" x="30" y="0.17954517655177904"></rect><rect fill="#2563EB" height="0.8622044538667223" width="1" x="31" y="0.1377955461332777"></rect><rect fill="#2563EB" height="0.7978308432900753" width="1" x="32" y="0.20216915670992475"></rect><rect fill="#2563EB" height="0.9736946359627673" width="1" x="33" y="0.026305364037232715"></rect><rect fill="#2563EB" height="0.906422958095915" width="1" x="34" y="0.093577041904085"></rect><rect fill="#2563EB" height="0.8985688191253742" width="1" x="35" y="0.10143118087462577"></rect><rect fill="#2563EB" height="0.9228588372466634" width="1" x="36" y="0.0771411627533366"></rect><rect fill="#2563EB" height="0.8423286230485532" width="1" x="37" y="0.15767137695144684"></rect><rect fill="#2563EB" height="0.8167285466420309" width="1" x="38" y="0.18327145335796913"></rect><rect fill="#2563EB" height="0.857531260112772" width="1" x="39" y="0.14246873988722797"></rect><rect fill="#2563EB" height="0.7596120342565678" width="1" x="40" y="0.24038796574343224"></rect><rect fill="#2563EB" height="0.775848972459568" width="1" x="41" y="0.22415102754043204"></rect><rect fill="#2563EB" height="0.766664633470846" width="1" x="42" y="0.233335366529154"></rect><rect fill="#2563EB" height="0.8874057077329307" width="1" x="43" y="0.1125942922670693"></rect><rect fill="#2563EB" height="1" width="1" x="44" y="0"></rect><rect fill="#2563EB" height="0.7451423709530987" width="1" x="45" y="0.25485762904690135"></rect><rect fill="#2563EB" height="0.6823762136935418" width="1" x="46" y="0.31762378630645816"></rect><rect fill="#2563EB" height="0.8191610367843309" width="1" x="47" y="0.18083896321566906"></rect><rect fill="#2563EB" height="0.7734097352947465" width="1" x="48" y="0.22659026470525345"></rect><rect fill="#2563EB" height="0.9095287997728996" width="1" x="49" y="0.09047120022710042"></rect><rect fill="#2563EB" height="0.8721251693549102" width="1" x="50" y="0.12787483064508975"></rect><rect fill="#2563EB" height="0.7271283258106434" width="1" x="51" y="0.27287167418935665"></rect><rect fill="#2563EB" height="0.8847883090908271" width="1" x="52" y="0.11521169090917294"></rect><rect fill="#2563EB" height="0.6893745143510334" width="1" x="53" y="0.31062548564896664"></rect><rect fill="#2563EB" height="0.7111449189798573" width="1" x="54" y="0.2888550810201427"></rect><rect fill="#2563EB" height="0.747729356814946" width="1" x="55" y="0.252270643185054"></rect><rect fill="#2563EB" height="0.8528807523612734" width="1" x="56" y="0.14711924763872664"></rect><rect fill="#2563EB" height="0.9600440444176968" width="1" x="57" y="0.03995595558230325"></rect><rect fill="#2563EB" height="0.752520526809778" width="1" x="58" y="0.247479473190222"></rect><rect fill="#2563EB" height="0.7390220207217376" width="1" x="59" y="0.2609779792782624"></rect><rect fill="#2563EB" height="0.818537049544268" width="1" x="60" y="0.18146295045573202"></rect><rect fill="#2563EB" height="0.7740852637391348" width="1" x="61" y="0.22591473626086522"></rect><rect fill="#2563EB" height="0.8907636161922967" width="1" x="62" y="0.10923638380770329"></rect><rect fill="#2563EB" height="0.7734800969369392" width="1" x="63" y="0.2265199030630608"></rect><rect fill="#2563EB" height="0.7993079702215106" width="1" x="64" y="0.20069202977848943"></rect><rect fill="#2563EB" height="0.8078934515829848" width="1" x="65" y="0.19210654841701524"></rect><rect fill="#2563EB" height="0.691173531086783" width="1" x="66" y="0.30882646891321697"></rect><rect fill="#2563EB" height="0.8783549374264439" width="1" x="67" y="0.12164506257355612"></rect><rect fill="#2563EB" height="0.8362706586692945" width="1" x="68" y="0.1637293413307055"></rect><rect fill="#2563EB" height="0.8074800263634013" width="1" x="69" y="0.19251997363659867"></rect><rect fill="#2563EB" height="0.809602455056394" width="1" x="70" y="0.19039754494360595"></rect><rect fill="#2563EB" height="0.7513641499264299" width="1" x="71" y="0.24863585007357014"></rect><rect fill="#2563EB" height="0.7618931268384556" width="1" x="72" y="0.23810687316154444"></rect><rect fill="#2563EB" height="0.935002237524128" width="1" x="73" y="0.06499776247587197"></rect><rect fill="#2563EB" height="0.6968141637610763" width="1" x="74" y="0.3031858362389237"></rect><rect fill="#2563EB" height="0.8556994294381368" width="1" x="75" y="0.14430057056186318"></rect><rect fill="#2563EB" height="0.8328299808809247" width="1" x="76" y="0.16717001911907525"></rect><rect fill="#2563EB" height="0.6841296680230163" width="1" x="77" y="0.31587033197698366"></rect><rect fill="#2563EB" height="0.7442057220388733" width="1" x="78" y="0.25579427796112675"></rect><rect fill="#2563EB" height="0.8426117194190531" width="1" x="79" y="0.1573882805809469"></rect><rect fill="#2563EB" height="0.7547030412111332" width="1" x="80" y="0.24529695878886681"></rect><rect fill="#2563EB" height="0.9925407455761531" width="1" x="81" y="0.007459254423846873"></rect><rect fill="#2563EB" height="0.8248737467987223" width="1" x="82" y="0.17512625320127773"></rect><rect fill="#2563EB" height="0.8594810954144338" width="1" x="83" y="0.14051890458556615"></rect><rect fill="#2563EB" height="0.8709286912615095" width="1" x="84" y="0.1290713087384905"></rect><rect fill="#2563EB" height="0.7440116497501826" width="1" x="85" y="0.25598835024981736"></rect><rect fill="#2563EB" height="0.7449226300694107" width="1" x="86" y="0.25507736993058927"></rect><rect fill="#2563EB" height="0.7963600200158226" width="1" x="87" y="0.20363997998417738"></rect><rect fill="#2563EB" height="0.9002169595880432" width="1" x="88" y="0.09978304041195685"></rect><rect fill="#2563EB" height="0.9711016049744401" width="1" x="89" y="0.02889839502555991"></rect><rect fill="#2563EB" height="0.8214226148072427" width="1" x="90" y="0.17857738519275734"></rect><rect fill="#2563EB" height="0.8826456045897646" width="1" x="91" y="0.1173543954102354"></rect><rect fill="#2563EB" height="0.8872414047785188" width="1" x="92" y="0.11275859522148124"></rect><rect fill="#2563EB" height="0.7394524429846137" width="1" x="93" y="0.26054755701538634"></rect><rect fill="#2563EB" height="0.8670265176484127" width="1" x="94" y="0.13297348235158735"></rect><rect fill="#2563EB" height="0.8485239681974416" width="1" x="95" y="0.15147603180255842"></rect><rect fill="#2563EB" height="0.9060460460199903" width="1" x="96" y="0.09395395398000972"></rect><rect fill="#2563EB" height="0.13495842854019297" width="1" x="97" y="0.865041571459807"></rect><rect fill="#2563EB" height="0.01451707132535918" width="1" x="98" y="0.9854829286746408"></rect><rect fill="#2563EB" height="0" width="1" x="99" y="1"></rect></svg>