<svg xmlns="http://www.w3.org/2000/svg" preserveAspectRatio="none" viewBox="0 0 100 1"><rect fill="#2563EB" height="0.000048715076051956186" width="1" x="0" y="0.999951284923948"></rect><rect fill="#2563EB" height="0.6378513503126976" width="1" x="1" y="0.3621486496873024"></rect><rect fill="#2563EB" height="0.6711164584226872" width="1" x="2" y="0.3288835415773128"></rect><rect fill="#2563EB" height="0.7660431683846765" width="1" x="3" y="0.23395683161532355"></rect><rect fill="#2563EB" height="0.6749717784688932" width="1" x="4" y="0.3250282215311068"></rect><rect fill="#2563EB" height="0.7832813359728693" width="1" x="5" y="0.2167186640271307"></rect><rect fill="#2563EB" height="0.6890193253362955" width="1" x="6" y="0.3109806746637045"></rect><rect fill="#2563EB" height="0.6985334913482575" width="1" x="7" y="0.3014665086517425"></rect><rect fill="#2563EB" height="0.7837877376889664" width="1" x="8" y="0.21621226231103363"></rect><rect fill="#2563EB" height="0.801604718890226" width="1" x="9" y="0.198395281109774"></rect><rect fill="#2563EB" height="0.8762053597107726" width="1" x="10" y="0.12379464028922738"></rect><rect fill="#2563EB" height="0.7370011329249676" width="1" x="11" y="0.2629988670750324"></rect><rect fill="#2563EB" height="0.8760175753861389" width="1" x="12" y="0.12398242461386111"></rect><rect fill="#2563EB" height="0.778655566871494" width="1" x="13" y="0.22134443312850605"></rect><rect fill="#2563EB" height="0.8525644351294301" width="1" x="14" y="0.14743556487056986"></rect><rect fill="#2563EB" height="0.8294348425141134" width="1" x="15" y="0.17056515748588663"></rect><rect fill="#2563EB" height="0.9355839130728484" width="1" x="16" y="0.06441608692715162"></rect><rect fill="#2563EB" height="0.9201130925621528" width="1" x="17" y="0.07988690743784721"></rect><rect fill="#2563EB" height="0.909566420915174" width="1" x="18" y="0.09043357908482597"></rect><rect fill="#2563EB" height="0.9158063542382042" width="1" x="19" y="0.08419364576179578"></rect><rect fill="#2563EB" height="0.9141789853906439" width="1" x="20" y="0.0858210146093561"></rect><rect fill="#2563EB" height="0.9686767213837731" width="1" x="21" y="0.03132327861622686"></rect><rect fill="#2563EB" height="0.9408761223290927" width="1" x="22" y="0.05912387767090732"></rect><rect fill="#2563EB" height="0.8937739550694859" width="1" x="23" y="0.10622604493051413"></rect><rect fill="#2563EB" height="0.9615898678750495" width="1" x="24" y="0.03841013212495048"></rect><rect fill="#2563EB" height="0.937913753279539" width="1" x="25" y="0.062086246720461036"></rect><rect fill="#2563EB" height="0.9707692365487294" width="1" x="26" y="0.029230763451270625"></rect><rect fill="#2563EB" height="0.9157331794719835" width="1" x="27" y="0.08426682052801648"></rect><rect fill="#2563EB" height="0.9531073482776339" width="1" x="28" y="0.04689265172236612"></rect><rect fill="#2563EB" height="0.942249736580208" width="1" x="29" y="0.05775026341979195"></rect><rect fill="#2563EB" height="0.9229992147857958" width="1" x="30" y="0.07700078521420417"></rect><rect fill="#2563EB" height="0.9315870812033153" width="1" x="31" y="0.06841291879668465"></rect><rect fill="#2563EB" height="0.9246637926327419" width="1" x="32" y="0.0753362073672581"></rect><rect fill="#2563EB" height="0.9949273561428095" width="1" x="33" y="0.005072643857190529"></rect><rect fill="#2563EB" height="0.9399682610821236" width="1" x="34" y="0.06003173891787639"></rect><rect fill="#2563EB" height="0.9817433194540032" width="1" x="35" y="0.01825668054599683"></rect><rect fill="#2563EB" height="1" width="1" x="36" y="0"></rect><rect fill="#2563EB" height="0.9422434748619215" width="1" x="37" y="0.057756525138078496"></rect><rect fill="#2563EB" height="0.9271679151348725" width="1" x="38" y="0.07283208486512749"></rect><rect fill="#2563EB" height="0.9253856528925011" width="1" x="39" y="0.07461434710749892"></rect><rect fill="#2563EB" height="0.9846989291182281" width="1" x="40" y="0.015301070881771905"></rect><rect fill="#2563EB" height="0.9381146053094642" width="1" x="41" y="0.06188539469053578"></rect><rect fill="#2563EB" height="0.9704855868738167" width="1" x="42" y="0.029514413126183303"></rect><rect fill="#2563EB" height="0.9266804878667523" width="1" x="43" y="0.07331951213324772"></rect><rect fill="#2563EB" height="0.965726005194731" width="1" x="44" y="0.03427399480526905"></rect><rect fill="#2563EB" height="0.933331612032495" width="1" x="45" y="0.06666838796750496"></rect><rect fill="#2563EB" height="0.9140491423104194" width="1" x="46" y="0.08595085768958055"></rect><rect fill="#2563EB" height="0.9978966321511534" width="1" x="47" y="0.0021033678488465712"></rect><rect fill="#2563EB" height="0.95022694429536" width="1" x="48" y="0.04977305570463997"></rect><rect fill="#2563EB" height="0.9616892507540933" width="1" x="49" y="0.03831074924590672"></rect><rect fill="#2563EB" height="0.938687366958918" width="1" x="50" y="0.06131263304108203"></rect><rect fill="#2563EB" height="0.48013601052928107" width="1" x="51" y="0.5198639894707189"></rect><rect fill="#2563EB" height="0.4000508208427008" width="1" x="52" y="0.5999491791572992"></rect><rect fill="#2563EB" height="0.42444323713748144" width="1" x="53" y="0.5755567628625186"></rect><rect fill="#2563EB" height="0.41525805735801846" width="1" x="54" y="0.5847419426419815"></rect><rect fill="#2563EB" height="0.4200714601389737" width="1" x="55" y="0.5799285398610263"></rect><rect fill="#2563EB" height="0.4365864674255263" width="1" x="56" y="0.5634135325744737"></rect><rect fill="#2563EB" height="0.39695237566033753" width="1" x="57" y="0.6030476243396625"></rect><rect fill="#2563EB" height="0.9365777618603607" width="1" x="58" y="0.06342223813963932"></rect><rect fill="#2563EB" height="0.8873975819656056" width="1" x="59" y="0.11260241803439441"></rect><rect fill="#2563EB" height="0.9157238889573834" width="1" x="60" y="0.08427611104261656"></rect><rect fill="#2563EB" height="0.8685986489528299" width="1" x="61" y="0.1314013510471701"></rect><rect fill="#2563EB" height="0.8657834894582616" width="1" x="62" y="0.13421651054173844"></rect><rect fill="#2563EB" height="0.9516517556218445" width="1" x="63" y="0.04834824437815555"></rect><rect fill="#2563EB" height="0.9970985517247006" width="1" x="64" y="0.0029014482752993676"></rect><rect fill="#2563EB" height="0.9659271027103492" width="1" x="65" y="0.034072897289650794"></rect><rect fill="#2563EB" height="0.907643216152023" width="1" x="66" y="0.09235678384797696"></rect><rect fill="#2563EB" height="0.9034845497310855" width="1" x="67" y="0.0965154502689145"></rect><rect fill="#2563EB" height="0.9422124485417581" width="1" x="68" y="0.05778755145824188"></rect><rect fill="#2563EB" height="0.8680338985326654" width="1" x="69" y="0.13196610146733456"></rect><rect fill="#2563EB" height="0.9077824322504993" width="1" x="70" y="0.09221756774950074"></rect><rect fill="#2563EB" height="0.910167973587896" width="1" x="71" y="0.08983202641210397"></rect><rect fill="#2563EB" height="0.9064225561189622" width="1" x="72" y="0.09357744388103784"></rect><rect fill="#2563EB" height="0.8503228802697309" width="1" x="73" y="0.1496771197302691"></rect><rect fill="#2563EB" height="0.8755732689275225" width="1" x="74" y="0.12442673107247748"></rect><rect fill="#2563EB" height="0.9191842077559996" width="1" x="75" y="0.08081579224400037"></rect><rect fill="#2563EB" height="0.8698820045546256" width="1" x="76" y="0.1301179954453744"></rect><rect fill="#2563EB" height="0.9314319489570657" width="1" x="77" y="0.06856805104293429"></rect><rect fill="#2563EB" height="0.8852771692462723" width="1" x="78" y="0.11472283075372769"></rect><rect fill="#2563EB" height="0.9039671033123516" width="1" x="79" y="0.09603289668764836"></rect><rect fill="#2563EB" height="0.9016033865338428" width="1" x="80" y="0.09839661346615725"></rect><rect fill="#2563EB" height="0.8992234296092917" width="1" x="81" y="0.10077657039070831"></rect><rect fill="#2563EB" height="0.9090650768134411" width="1" x="82" y="0.09093492318655894"></rect><rect fill="#2563EB" height="0.9091354581180476" width="1" x="83" y="0.09086454188195237"></rect><rect fill="#2563EB" height="0.9464188769239409" width="1" x="84" y="0.05358112307605911"></rect><rect fill="#2563EB" height="0.9529132085090564" width="1" x="85" y="0.047086791490943636"></rect><rect fill="#2563EB" height="0.9292853075064799" width="1" x="86" y="0.07071469249352014"></rect><rect fill="#2563EB" height="0.9022916741097979" width="1" x="87" y="0.09770832589020206"></rect><rect fill="#2563EB" height="0.9338437362269673" width="1" x="88" y="0.06615626377303274"></rect><rect fill="#2563EB" height="0.928230546940705" width="1" x="89" y="0.07176945305929505"></rect><rect fill="#2563EB" height="0.9384760001646114" width="1" x="90" y="0.06152399983538859"></rect><rect fill="#2563EB" height="0.9545951315373393" width="1" x="91" y="0.045404868462660675"></rect><rect fill="#2563EB" height="0.9584483074557688" width="1" x="92" y="0.04155169254423119"></rect><rect fill="#2563EB" height="0.919762182443054" width="1" x="93" y="0.08023781755694603"></rect><rect fill="#2563EB" height="0.9261837001161196" width="1" x="94" y="0.07381629988388039"></rect><rect fill="#2563EB" height="0.9456562931987921" width="1" x="95" y="0.054343706801207925"></rect><rect fill="#2563EB" height="0.9625674118090747" width="1" x="96" y="0.03743258819092532"></rect><rect fill="#2563EB" height="0.5910002505747695" width="1" x="97" y="0.40899974942523054"></rect><rect fill="#2563EB" height="0.21947608613057198" width="1" x="98" y="0.780523913869428"></rect><rect fill="#2563EB" height="0.029738803705399778" width="1" x="99" y="0.9702611962946002"></rect></svg>